<?xml version="1.0" encoding="UTF-8" ?>
<svg version="1.1" width="86" height="6" xmlns="http://www.w3.org/2000/svg" shape-rendering="crispEdges">
<rect x="2" y="0" width="1" height="1" fill="#1A0F23" />
<rect x="3" y="0" width="1" height="1" fill="#1A0F23" />
<rect x="4" y="0" width="1" height="1" fill="#1A0F23" />
<rect x="5" y="0" width="1" height="1" fill="#1A0F23" />
<rect x="6" y="0" width="1" height="1" fill="#1A0F23" />
<rect x="7" y="0" width="1" height="1" fill="#1A0F23" />
<rect x="8" y="0" width="1" height="1" fill="#1A0F23" />
<rect x="9" y="0" width="1" height="1" fill="#1A0F23" />
<rect x="10" y="0" width="1" height="1" fill="#1A0F23" />
<rect x="11" y="0" width="1" height="1" fill="#1A0F23" />
<rect x="12" y="0" width="1" height="1" fill="#1A0F23" />
<rect x="13" y="0" width="1" height="1" fill="#1A0F23" />
<rect x="14" y="0" width="1" height="1" fill="#1A0F23" />
<rect x="15" y="0" width="1" height="1" fill="#1A0F23" />
<rect x="16" y="0" width="1" height="1" fill="#1A0F23" />
<rect x="17" y="0" width="1" height="1" fill="#1A0F23" />
<rect x="18" y="0" width="1" height="1" fill="#1A0F23" />
<rect x="19" y="0" width="1" height="1" fill="#1A0F23" />
<rect x="20" y="0" width="1" height="1" fill="#1A0F23" />
<rect x="21" y="0" width="1" height="1" fill="#1A0F23" />
<rect x="22" y="0" width="1" height="1" fill="#1A0F23" />
<rect x="23" y="0" width="1" height="1" fill="#1A0F23" />
<rect x="24" y="0" width="1" height="1" fill="#1A0F23" />
<rect x="25" y="0" width="1" height="1" fill="#1A0F23" />
<rect x="26" y="0" width="1" height="1" fill="#1A0F23" />
<rect x="27" y="0" width="1" height="1" fill="#1A0F23" />
<rect x="28" y="0" width="1" height="1" fill="#1A0F23" />
<rect x="29" y="0" width="1" height="1" fill="#1A0F23" />
<rect x="30" y="0" width="1" height="1" fill="#1A0F23" />
<rect x="31" y="0" width="1" height="1" fill="#1A0F23" />
<rect x="32" y="0" width="1" height="1" fill="#1A0F23" />
<rect x="33" y="0" width="1" height="1" fill="#1A0F23" />
<rect x="34" y="0" width="1" height="1" fill="#1A0F23" />
<rect x="35" y="0" width="1" height="1" fill="#1A0F23" />
<rect x="36" y="0" width="1" height="1" fill="#1A0F23" />
<rect x="37" y="0" width="1" height="1" fill="#1A0F23" />
<rect x="38" y="0" width="1" height="1" fill="#1A0F23" />
<rect x="39" y="0" width="1" height="1" fill="#1A0F23" />
<rect x="40" y="0" width="1" height="1" fill="#1A0F23" />
<rect x="41" y="0" width="1" height="1" fill="#1A0F23" />
<rect x="42" y="0" width="1" height="1" fill="#1A0F23" />
<rect x="43" y="0" width="1" height="1" fill="#1A0F23" />
<rect x="44" y="0" width="1" height="1" fill="#1A0F23" />
<rect x="45" y="0" width="1" height="1" fill="#1A0F23" />
<rect x="46" y="0" width="1" height="1" fill="#1A0F23" />
<rect x="47" y="0" width="1" height="1" fill="#1A0F23" />
<rect x="48" y="0" width="1" height="1" fill="#1A0F23" />
<rect x="49" y="0" width="1" height="1" fill="#1A0F23" />
<rect x="50" y="0" width="1" height="1" fill="#1A0F23" />
<rect x="51" y="0" width="1" height="1" fill="#1A0F23" />
<rect x="52" y="0" width="1" height="1" fill="#1A0F23" />
<rect x="53" y="0" width="1" height="1" fill="#1A0F23" />
<rect x="54" y="0" width="1" height="1" fill="#1A0F23" />
<rect x="55" y="0" width="1" height="1" fill="#1A0F23" />
<rect x="56" y="0" width="1" height="1" fill="#1A0F23" />
<rect x="57" y="0" width="1" height="1" fill="#1A0F23" />
<rect x="58" y="0" width="1" height="1" fill="#1A0F23" />
<rect x="59" y="0" width="1" height="1" fill="#1A0F23" />
<rect x="60" y="0" width="1" height="1" fill="#1A0F23" />
<rect x="61" y="0" width="1" height="1" fill="#1A0F23" />
<rect x="62" y="0" width="1" height="1" fill="#1A0F23" />
<rect x="63" y="0" width="1" height="1" fill="#1A0F23" />
<rect x="64" y="0" width="1" height="1" fill="#1A0F23" />
<rect x="65" y="0" width="1" height="1" fill="#1A0F23" />
<rect x="66" y="0" width="1" height="1" fill="#1A0F23" />
<rect x="67" y="0" width="1" height="1" fill="#1A0F23" />
<rect x="68" y="0" width="1" height="1" fill="#1A0F23" />
<rect x="69" y="0" width="1" height="1" fill="#1A0F23" />
<rect x="70" y="0" width="1" height="1" fill="#1A0F23" />
<rect x="71" y="0" width="1" height="1" fill="#1A0F23" />
<rect x="72" y="0" width="1" height="1" fill="#1A0F23" />
<rect x="73" y="0" width="1" height="1" fill="#1A0F23" />
<rect x="74" y="0" width="1" height="1" fill="#1A0F23" />
<rect x="75" y="0" width="1" height="1" fill="#1A0F23" />
<rect x="76" y="0" width="1" height="1" fill="#1A0F23" />
<rect x="77" y="0" width="1" height="1" fill="#1A0F23" />
<rect x="78" y="0" width="1" height="1" fill="#1A0F23" />
<rect x="79" y="0" width="1" height="1" fill="#1A0F23" />
<rect x="80" y="0" width="1" height="1" fill="#1A0F23" />
<rect x="81" y="0" width="1" height="1" fill="#1A0F23" />
<rect x="82" y="0" width="1" height="1" fill="#1A0F23" />
<rect x="83" y="0" width="1" height="1" fill="#1A0F23" />
<rect x="1" y="1" width="1" height="1" fill="#1A0F23" />
<rect x="84" y="1" width="1" height="1" fill="#1A0F23" />
<rect x="0" y="2" width="1" height="1" fill="#1A0F23" />
<rect x="85" y="2" width="1" height="1" fill="#1A0F23" />
<rect x="0" y="3" width="1" height="1" fill="#1A0F23" />
<rect x="85" y="3" width="1" height="1" fill="#1A0F23" />
<rect x="1" y="4" width="1" height="1" fill="#1A0F23" />
<rect x="84" y="4" width="1" height="1" fill="#1A0F23" />
<rect x="2" y="5" width="1" height="1" fill="#1A0F23" />
<rect x="3" y="5" width="1" height="1" fill="#1A0F23" />
<rect x="4" y="5" width="1" height="1" fill="#1A0F23" />
<rect x="5" y="5" width="1" height="1" fill="#1A0F23" />
<rect x="6" y="5" width="1" height="1" fill="#1A0F23" />
<rect x="7" y="5" width="1" height="1" fill="#1A0F23" />
<rect x="8" y="5" width="1" height="1" fill="#1A0F23" />
<rect x="9" y="5" width="1" height="1" fill="#1A0F23" />
<rect x="10" y="5" width="1" height="1" fill="#1A0F23" />
<rect x="11" y="5" width="1" height="1" fill="#1A0F23" />
<rect x="12" y="5" width="1" height="1" fill="#1A0F23" />
<rect x="13" y="5" width="1" height="1" fill="#1A0F23" />
<rect x="14" y="5" width="1" height="1" fill="#1A0F23" />
<rect x="15" y="5" width="1" height="1" fill="#1A0F23" />
<rect x="16" y="5" width="1" height="1" fill="#1A0F23" />
<rect x="17" y="5" width="1" height="1" fill="#1A0F23" />
<rect x="18" y="5" width="1" height="1" fill="#1A0F23" />
<rect x="19" y="5" width="1" height="1" fill="#1A0F23" />
<rect x="20" y="5" width="1" height="1" fill="#1A0F23" />
<rect x="21" y="5" width="1" height="1" fill="#1A0F23" />
<rect x="22" y="5" width="1" height="1" fill="#1A0F23" />
<rect x="23" y="5" width="1" height="1" fill="#1A0F23" />
<rect x="24" y="5" width="1" height="1" fill="#1A0F23" />
<rect x="25" y="5" width="1" height="1" fill="#1A0F23" />
<rect x="26" y="5" width="1" height="1" fill="#1A0F23" />
<rect x="27" y="5" width="1" height="1" fill="#1A0F23" />
<rect x="28" y="5" width="1" height="1" fill="#1A0F23" />
<rect x="29" y="5" width="1" height="1" fill="#1A0F23" />
<rect x="30" y="5" width="1" height="1" fill="#1A0F23" />
<rect x="31" y="5" width="1" height="1" fill="#1A0F23" />
<rect x="32" y="5" width="1" height="1" fill="#1A0F23" />
<rect x="33" y="5" width="1" height="1" fill="#1A0F23" />
<rect x="34" y="5" width="1" height="1" fill="#1A0F23" />
<rect x="35" y="5" width="1" height="1" fill="#1A0F23" />
<rect x="36" y="5" width="1" height="1" fill="#1A0F23" />
<rect x="37" y="5" width="1" height="1" fill="#1A0F23" />
<rect x="38" y="5" width="1" height="1" fill="#1A0F23" />
<rect x="39" y="5" width="1" height="1" fill="#1A0F23" />
<rect x="40" y="5" width="1" height="1" fill="#1A0F23" />
<rect x="41" y="5" width="1" height="1" fill="#1A0F23" />
<rect x="42" y="5" width="1" height="1" fill="#1A0F23" />
<rect x="43" y="5" width="1" height="1" fill="#1A0F23" />
<rect x="44" y="5" width="1" height="1" fill="#1A0F23" />
<rect x="45" y="5" width="1" height="1" fill="#1A0F23" />
<rect x="46" y="5" width="1" height="1" fill="#1A0F23" />
<rect x="47" y="5" width="1" height="1" fill="#1A0F23" />
<rect x="48" y="5" width="1" height="1" fill="#1A0F23" />
<rect x="49" y="5" width="1" height="1" fill="#1A0F23" />
<rect x="50" y="5" width="1" height="1" fill="#1A0F23" />
<rect x="51" y="5" width="1" height="1" fill="#1A0F23" />
<rect x="52" y="5" width="1" height="1" fill="#1A0F23" />
<rect x="53" y="5" width="1" height="1" fill="#1A0F23" />
<rect x="54" y="5" width="1" height="1" fill="#1A0F23" />
<rect x="55" y="5" width="1" height="1" fill="#1A0F23" />
<rect x="56" y="5" width="1" height="1" fill="#1A0F23" />
<rect x="57" y="5" width="1" height="1" fill="#1A0F23" />
<rect x="58" y="5" width="1" height="1" fill="#1A0F23" />
<rect x="59" y="5" width="1" height="1" fill="#1A0F23" />
<rect x="60" y="5" width="1" height="1" fill="#1A0F23" />
<rect x="61" y="5" width="1" height="1" fill="#1A0F23" />
<rect x="62" y="5" width="1" height="1" fill="#1A0F23" />
<rect x="63" y="5" width="1" height="1" fill="#1A0F23" />
<rect x="64" y="5" width="1" height="1" fill="#1A0F23" />
<rect x="65" y="5" width="1" height="1" fill="#1A0F23" />
<rect x="66" y="5" width="1" height="1" fill="#1A0F23" />
<rect x="67" y="5" width="1" height="1" fill="#1A0F23" />
<rect x="68" y="5" width="1" height="1" fill="#1A0F23" />
<rect x="69" y="5" width="1" height="1" fill="#1A0F23" />
<rect x="70" y="5" width="1" height="1" fill="#1A0F23" />
<rect x="71" y="5" width="1" height="1" fill="#1A0F23" />
<rect x="72" y="5" width="1" height="1" fill="#1A0F23" />
<rect x="73" y="5" width="1" height="1" fill="#1A0F23" />
<rect x="74" y="5" width="1" height="1" fill="#1A0F23" />
<rect x="75" y="5" width="1" height="1" fill="#1A0F23" />
<rect x="76" y="5" width="1" height="1" fill="#1A0F23" />
<rect x="77" y="5" width="1" height="1" fill="#1A0F23" />
<rect x="78" y="5" width="1" height="1" fill="#1A0F23" />
<rect x="79" y="5" width="1" height="1" fill="#1A0F23" />
<rect x="80" y="5" width="1" height="1" fill="#1A0F23" />
<rect x="81" y="5" width="1" height="1" fill="#1A0F23" />
<rect x="82" y="5" width="1" height="1" fill="#1A0F23" />
<rect x="83" y="5" width="1" height="1" fill="#1A0F23" />
</svg>