<?xml version="1.0" encoding="UTF-8" ?>
<svg version="1.1" width="23" height="22" xmlns="http://www.w3.org/2000/svg" shape-rendering="crispEdges">
<rect x="13" y="0" width="1" height="1" fill="#44211B" />
<rect x="14" y="0" width="1" height="1" fill="#44211B" />
<rect x="15" y="0" width="1" height="1" fill="#44211B" />
<rect x="16" y="0" width="1" height="1" fill="#44211B" />
<rect x="17" y="0" width="1" height="1" fill="#44211B" />
<rect x="18" y="0" width="1" height="1" fill="#FF8000" opacity="0.007843" />
<rect x="10" y="1" width="1" height="1" fill="#FFFF00" opacity="0.003922" />
<rect x="11" y="1" width="1" height="1" fill="#44211B" />
<rect x="12" y="1" width="1" height="1" fill="#44211B" />
<rect x="13" y="1" width="1" height="1" fill="#E27E2C" />
<rect x="14" y="1" width="1" height="1" fill="#DC7724" />
<rect x="15" y="1" width="1" height="1" fill="#E27E2C" />
<rect x="16" y="1" width="1" height="1" fill="#E27E2C" />
<rect x="17" y="1" width="1" height="1" fill="#E27E2C" />
<rect x="18" y="1" width="1" height="1" fill="#44211B" />
<rect x="19" y="1" width="1" height="1" fill="#44211B" />
<rect x="10" y="2" width="1" height="1" fill="#44211B" />
<rect x="11" y="2" width="1" height="1" fill="#E27E2C" />
<rect x="12" y="2" width="1" height="1" fill="#E27E2C" />
<rect x="13" y="2" width="1" height="1" fill="#E27E2C" />
<rect x="14" y="2" width="1" height="1" fill="#E68231" />
<rect x="15" y="2" width="1" height="1" fill="#E68231" />
<rect x="16" y="2" width="1" height="1" fill="#E27E2C" />
<rect x="17" y="2" width="1" height="1" fill="#DC7724" />
<rect x="18" y="2" width="1" height="1" fill="#DC7724" />
<rect x="19" y="2" width="1" height="1" fill="#9F4F1F" />
<rect x="20" y="2" width="1" height="1" fill="#44211B" />
<rect x="21" y="2" width="1" height="1" fill="#BFBF40" opacity="0.015686" />
<rect x="9" y="3" width="1" height="1" fill="#44211B" />
<rect x="10" y="3" width="1" height="1" fill="#B15925" />
<rect x="11" y="3" width="1" height="1" fill="#DC7724" />
<rect x="12" y="3" width="1" height="1" fill="#DC7724" />
<rect x="13" y="3" width="1" height="1" fill="#E27E2C" />
<rect x="14" y="3" width="1" height="1" fill="#E27E2C" />
<rect x="15" y="3" width="1" height="1" fill="#E27E2C" />
<rect x="16" y="3" width="1" height="1" fill="#DC7724" />
<rect x="17" y="3" width="1" height="1" fill="#DC7724" />
<rect x="18" y="3" width="1" height="1" fill="#9F4F1F" />
<rect x="19" y="3" width="1" height="1" fill="#B35A24" />
<rect x="20" y="3" width="1" height="1" fill="#CB6C32" />
<rect x="21" y="3" width="1" height="1" fill="#44211B" />
<rect x="22" y="3" width="1" height="1" fill="#CC9933" opacity="0.019608" />
<rect x="9" y="4" width="1" height="1" fill="#44211B" />
<rect x="10" y="4" width="1" height="1" fill="#DC7724" />
<rect x="11" y="4" width="1" height="1" fill="#E27E2C" />
<rect x="12" y="4" width="1" height="1" fill="#DC7724" />
<rect x="13" y="4" width="1" height="1" fill="#E27E2C" />
<rect x="14" y="4" width="1" height="1" fill="#DC7724" />
<rect x="15" y="4" width="1" height="1" fill="#E27E2C" />
<rect x="16" y="4" width="1" height="1" fill="#DC7724" />
<rect x="17" y="4" width="1" height="1" fill="#B35A23" />
<rect x="18" y="4" width="1" height="1" fill="#9F4F1F" />
<rect x="19" y="4" width="1" height="1" fill="#B35A24" />
<rect x="20" y="4" width="1" height="1" fill="#C96A32" />
<rect x="21" y="4" width="1" height="1" fill="#44211B" />
<rect x="22" y="4" width="1" height="1" fill="#FFAA55" opacity="0.011765" />
<rect x="8" y="5" width="1" height="1" fill="#44211B" />
<rect x="9" y="5" width="1" height="1" fill="#DC7724" />
<rect x="10" y="5" width="1" height="1" fill="#E27E2C" />
<rect x="11" y="5" width="1" height="1" fill="#E68231" />
<rect x="12" y="5" width="1" height="1" fill="#E68231" />
<rect x="13" y="5" width="1" height="1" fill="#DC7724" />
<rect x="14" y="5" width="1" height="1" fill="#DC7724" />
<rect x="15" y="5" width="1" height="1" fill="#DC7724" />
<rect x="16" y="5" width="1" height="1" fill="#B35925" />
<rect x="17" y="5" width="1" height="1" fill="#9F4F1F" />
<rect x="18" y="5" width="1" height="1" fill="#9F4F1F" />
<rect x="19" y="5" width="1" height="1" fill="#B85E29" />
<rect x="20" y="5" width="1" height="1" fill="#B85E29" />
<rect x="21" y="5" width="1" height="1" fill="#874428" />
<rect x="22" y="5" width="1" height="1" fill="#44211B" />
<rect x="8" y="6" width="1" height="1" fill="#44211B" />
<rect x="9" y="6" width="1" height="1" fill="#DC7724" />
<rect x="10" y="6" width="1" height="1" fill="#E27E2C" />
<rect x="11" y="6" width="1" height="1" fill="#E68231" />
<rect x="12" y="6" width="1" height="1" fill="#DC7724" />
<rect x="13" y="6" width="1" height="1" fill="#E27E2C" />
<rect x="14" y="6" width="1" height="1" fill="#CF7230" />
<rect x="15" y="6" width="1" height="1" fill="#DC7724" />
<rect x="16" y="6" width="1" height="1" fill="#B35A25" />
<rect x="17" y="6" width="1" height="1" fill="#9F4F1F" />
<rect x="18" y="6" width="1" height="1" fill="#CB6C32" />
<rect x="19" y="6" width="1" height="1" fill="#B85E29" />
<rect x="20" y="6" width="1" height="1" fill="#C96A32" />
<rect x="21" y="6" width="1" height="1" fill="#B15825" />
<rect x="22" y="6" width="1" height="1" fill="#44211B" />
<rect x="8" y="7" width="1" height="1" fill="#44211B" />
<rect x="9" y="7" width="1" height="1" fill="#DC7724" />
<rect x="10" y="7" width="1" height="1" fill="#E27E2C" />
<rect x="11" y="7" width="1" height="1" fill="#E27E2C" />
<rect x="12" y="7" width="1" height="1" fill="#DC7724" />
<rect x="13" y="7" width="1" height="1" fill="#DC7724" />
<rect x="14" y="7" width="1" height="1" fill="#DC7724" />
<rect x="15" y="7" width="1" height="1" fill="#DC7724" />
<rect x="16" y="7" width="1" height="1" fill="#DC7724" />
<rect x="17" y="7" width="1" height="1" fill="#B35A23" />
<rect x="18" y="7" width="1" height="1" fill="#B15824" />
<rect x="19" y="7" width="1" height="1" fill="#C96A32" />
<rect x="20" y="7" width="1" height="1" fill="#C96A32" />
<rect x="21" y="7" width="1" height="1" fill="#9D4F1F" />
<rect x="22" y="7" width="1" height="1" fill="#44211B" />
<rect x="7" y="8" width="1" height="1" fill="#44211B" />
<rect x="8" y="8" width="1" height="1" fill="#B35A25" />
<rect x="9" y="8" width="1" height="1" fill="#E27E2C" />
<rect x="10" y="8" width="1" height="1" fill="#E68231" />
<rect x="11" y="8" width="1" height="1" fill="#DC7724" />
<rect x="12" y="8" width="1" height="1" fill="#DC7724" />
<rect x="13" y="8" width="1" height="1" fill="#E27E2C" />
<rect x="14" y="8" width="1" height="1" fill="#DC7724" />
<rect x="15" y="8" width="1" height="1" fill="#DC7724" />
<rect x="16" y="8" width="1" height="1" fill="#B25924" />
<rect x="17" y="8" width="1" height="1" fill="#9E4F26" opacity="0.996078" />
<rect x="18" y="8" width="1" height="1" fill="#773D27" />
<rect x="19" y="8" width="1" height="1" fill="#C96A32" />
<rect x="20" y="8" width="1" height="1" fill="#733D29" opacity="0.996078" />
<rect x="21" y="8" width="1" height="1" fill="#995027" />
<rect x="22" y="8" width="1" height="1" fill="#44211B" />
<rect x="7" y="9" width="1" height="1" fill="#44211B" />
<rect x="8" y="9" width="1" height="1" fill="#B15824" />
<rect x="9" y="9" width="1" height="1" fill="#E27E2C" />
<rect x="10" y="9" width="1" height="1" fill="#DC7724" />
<rect x="11" y="9" width="1" height="1" fill="#E27E2C" />
<rect x="12" y="9" width="1" height="1" fill="#DC7724" />
<rect x="13" y="9" width="1" height="1" fill="#DC7724" />
<rect x="14" y="9" width="1" height="1" fill="#DC7724" />
<rect x="15" y="9" width="1" height="1" fill="#9F4F1F" />
<rect x="16" y="9" width="1" height="1" fill="#9F4F1F" />
<rect x="17" y="9" width="1" height="1" fill="#B15825" />
<rect x="18" y="9" width="1" height="1" fill="#B15824" />
<rect x="19" y="9" width="1" height="1" fill="#954E27" />
<rect x="20" y="9" width="1" height="1" fill="#9D4F1F" />
<rect x="21" y="9" width="1" height="1" fill="#995025" />
<rect x="22" y="9" width="1" height="1" fill="#44211B" />
<rect x="7" y="10" width="1" height="1" fill="#44211B" />
<rect x="8" y="10" width="1" height="1" fill="#DC7724" />
<rect x="9" y="10" width="1" height="1" fill="#E27E2C" />
<rect x="10" y="10" width="1" height="1" fill="#E27E2C" />
<rect x="11" y="10" width="1" height="1" fill="#E18134" />
<rect x="12" y="10" width="1" height="1" fill="#CF722F" />
<rect x="13" y="10" width="1" height="1" fill="#DC7724" />
<rect x="14" y="10" width="1" height="1" fill="#9F4F1F" />
<rect x="15" y="10" width="1" height="1" fill="#9F4F1F" />
<rect x="16" y="10" width="1" height="1" fill="#B15823" />
<rect x="17" y="10" width="1" height="1" fill="#B85E29" />
<rect x="18" y="10" width="1" height="1" fill="#9F4F1F" />
<rect x="19" y="10" width="1" height="1" fill="#854726" />
<rect x="20" y="10" width="1" height="1" fill="#9F4F1F" />
<rect x="21" y="10" width="1" height="1" fill="#44211B" />
<rect x="6" y="11" width="1" height="1" fill="#BFBF40" opacity="0.015686" />
<rect x="7" y="11" width="1" height="1" fill="#44211B" />
<rect x="8" y="11" width="1" height="1" fill="#E27E2C" />
<rect x="9" y="11" width="1" height="1" fill="#E27E2C" />
<rect x="10" y="11" width="1" height="1" fill="#E27E2C" />
<rect x="11" y="11" width="1" height="1" fill="#DC7724" />
<rect x="12" y="11" width="1" height="1" fill="#DC7724" />
<rect x="13" y="11" width="1" height="1" fill="#B85E29" />
<rect x="14" y="11" width="1" height="1" fill="#C96A32" />
<rect x="15" y="11" width="1" height="1" fill="#844326" />
<rect x="16" y="11" width="1" height="1" fill="#7A4028" />
<rect x="17" y="11" width="1" height="1" fill="#6A3B2A" />
<rect x="18" y="11" width="1" height="1" fill="#9F4F1F" />
<rect x="19" y="11" width="1" height="1" fill="#9D4F1F" />
<rect x="20" y="11" width="1" height="1" fill="#B15825" />
<rect x="21" y="11" width="1" height="1" fill="#44211B" />
<rect x="6" y="12" width="1" height="1" fill="#44211B" />
<rect x="7" y="12" width="1" height="1" fill="#DC7724" />
<rect x="8" y="12" width="1" height="1" fill="#E27E2C" />
<rect x="9" y="12" width="1" height="1" fill="#DC7724" />
<rect x="10" y="12" width="1" height="1" fill="#C96A32" />
<rect x="11" y="12" width="1" height="1" fill="#B35A24" />
<rect x="12" y="12" width="1" height="1" fill="#B85E29" />
<rect x="13" y="12" width="1" height="1" fill="#B85E29" />
<rect x="14" y="12" width="1" height="1" fill="#7D4127" />
<rect x="15" y="12" width="1" height="1" fill="#9D4D1F" />
<rect x="16" y="12" width="1" height="1" fill="#9D4F1F" />
<rect x="17" y="12" width="1" height="1" fill="#9D4F1F" />
<rect x="18" y="12" width="1" height="1" fill="#9F4F1F" />
<rect x="19" y="12" width="1" height="1" fill="#B15824" />
<rect x="20" y="12" width="1" height="1" fill="#44211B" />
<rect x="5" y="13" width="1" height="1" fill="#44211B" />
<rect x="6" y="13" width="1" height="1" fill="#F6D086" opacity="0.992157" />
<rect x="7" y="13" width="1" height="1" fill="#DC7724" />
<rect x="8" y="13" width="1" height="1" fill="#DC7724" />
<rect x="9" y="13" width="1" height="1" fill="#C96A32" />
<rect x="10" y="13" width="1" height="1" fill="#C96A32" />
<rect x="11" y="13" width="1" height="1" fill="#B15825" />
<rect x="12" y="13" width="1" height="1" fill="#9D4D1F" />
<rect x="13" y="13" width="1" height="1" fill="#9D4D1F" />
<rect x="14" y="13" width="1" height="1" fill="#9D4F1F" />
<rect x="15" y="13" width="1" height="1" fill="#A05223" />
<rect x="16" y="13" width="1" height="1" fill="#B15825" />
<rect x="17" y="13" width="1" height="1" fill="#9C5025" />
<rect x="18" y="13" width="1" height="1" fill="#9F4F1F" />
<rect x="19" y="13" width="1" height="1" fill="#44211B" />
<rect x="1" y="14" width="1" height="1" fill="#FFFF00" opacity="0.003922" />
<rect x="2" y="14" width="1" height="1" fill="#44211B" />
<rect x="3" y="14" width="1" height="1" fill="#44211B" />
<rect x="4" y="14" width="1" height="1" fill="#44211B" />
<rect x="5" y="14" width="1" height="1" fill="#F8D58D" />
<rect x="6" y="14" width="1" height="1" fill="#F8D489" opacity="0.996078" />
<rect x="7" y="14" width="1" height="1" fill="#E4AF69" opacity="0.996078" />
<rect x="8" y="14" width="1" height="1" fill="#C86C2C" />
<rect x="9" y="14" width="1" height="1" fill="#CB6C32" />
<rect x="10" y="14" width="1" height="1" fill="#B15A25" />
<rect x="11" y="14" width="1" height="1" fill="#B15825" />
<rect x="12" y="14" width="1" height="1" fill="#B15825" />
<rect x="13" y="14" width="1" height="1" fill="#9C5025" opacity="0.992157" />
<rect x="14" y="14" width="1" height="1" fill="#B15825" />
<rect x="15" y="14" width="1" height="1" fill="#A15323" opacity="0.996078" />
<rect x="16" y="14" width="1" height="1" fill="#44211B" />
<rect x="17" y="14" width="1" height="1" fill="#44211B" />
<rect x="18" y="14" width="1" height="1" fill="#44211B" />
<rect x="19" y="14" width="1" height="1" fill="#CC9933" opacity="0.019608" />
<rect x="1" y="15" width="1" height="1" fill="#44211B" />
<rect x="2" y="15" width="1" height="1" fill="#F1C882" />
<rect x="3" y="15" width="1" height="1" fill="#F4CD83" opacity="0.996078" />
<rect x="4" y="15" width="1" height="1" fill="#F5CE87" opacity="0.996078" />
<rect x="5" y="15" width="1" height="1" fill="#FAD58F" opacity="0.996078" />
<rect x="6" y="15" width="1" height="1" fill="#FADF9A" opacity="0.996078" />
<rect x="7" y="15" width="1" height="1" fill="#D4A665" />
<rect x="8" y="15" width="1" height="1" fill="#D7A365" opacity="0.996078" />
<rect x="9" y="15" width="1" height="1" fill="#A36B39" />
<rect x="10" y="15" width="1" height="1" fill="#44211B" />
<rect x="11" y="15" width="1" height="1" fill="#44211B" />
<rect x="12" y="15" width="1" height="1" fill="#44211B" />
<rect x="13" y="15" width="1" height="1" fill="#44211B" />
<rect x="14" y="15" width="1" height="1" fill="#44211B" />
<rect x="15" y="15" width="1" height="1" fill="#44211B" />
<rect x="0" y="16" width="1" height="1" fill="#44211B" />
<rect x="1" y="16" width="1" height="1" fill="#C69C69" />
<rect x="2" y="16" width="1" height="1" fill="#F1C981" />
<rect x="3" y="16" width="1" height="1" fill="#E9BF79" opacity="0.996078" />
<rect x="4" y="16" width="1" height="1" fill="#F2CA84" opacity="0.996078" />
<rect x="5" y="16" width="1" height="1" fill="#EEC47C" opacity="0.996078" />
<rect x="6" y="16" width="1" height="1" fill="#E2B872" opacity="0.996078" />
<rect x="7" y="16" width="1" height="1" fill="#CD9F63" />
<rect x="8" y="16" width="1" height="1" fill="#C6995F" />
<rect x="9" y="16" width="1" height="1" fill="#44211B" />
<rect x="10" y="16" width="1" height="1" fill="#FFFF00" opacity="0.003922" />
<rect x="0" y="17" width="1" height="1" fill="#44211B" />
<rect x="1" y="17" width="1" height="1" fill="#BA9360" />
<rect x="2" y="17" width="1" height="1" fill="#E5B777" />
<rect x="3" y="17" width="1" height="1" fill="#F2C680" opacity="0.992157" />
<rect x="4" y="17" width="1" height="1" fill="#F0C883" />
<rect x="5" y="17" width="1" height="1" fill="#EBC17A" opacity="0.992157" />
<rect x="6" y="17" width="1" height="1" fill="#E2B875" opacity="0.996078" />
<rect x="7" y="17" width="1" height="1" fill="#D1AA6C" opacity="0.996078" />
<rect x="8" y="17" width="1" height="1" fill="#44211B" />
<rect x="0" y="18" width="1" height="1" fill="#44211B" />
<rect x="1" y="18" width="1" height="1" fill="#B18A5C" />
<rect x="2" y="18" width="1" height="1" fill="#CCA369" />
<rect x="3" y="18" width="1" height="1" fill="#C89E65" opacity="0.996078" />
<rect x="4" y="18" width="1" height="1" fill="#D4A76D" opacity="0.996078" />
<rect x="5" y="18" width="1" height="1" fill="#DBAD72" />
<rect x="6" y="18" width="1" height="1" fill="#D3AA6B" />
<rect x="7" y="18" width="1" height="1" fill="#44211B" />
<rect x="8" y="18" width="1" height="1" fill="#D5AA55" opacity="0.023529" />
<rect x="0" y="19" width="1" height="1" fill="#AAAA55" opacity="0.011765" />
<rect x="1" y="19" width="1" height="1" fill="#44211B" />
<rect x="2" y="19" width="1" height="1" fill="#44211B" />
<rect x="3" y="19" width="1" height="1" fill="#44211B" />
<rect x="4" y="19" width="1" height="1" fill="#CFA46A" opacity="0.992157" />
<rect x="5" y="19" width="1" height="1" fill="#C59E67" />
<rect x="6" y="19" width="1" height="1" fill="#CFA569" />
<rect x="7" y="19" width="1" height="1" fill="#44211B" />
<rect x="3" y="20" width="1" height="1" fill="#44211B" />
<rect x="4" y="20" width="1" height="1" fill="#C39C67" />
<rect x="5" y="20" width="1" height="1" fill="#B68E5E" />
<rect x="6" y="20" width="1" height="1" fill="#D2A767" />
<rect x="7" y="20" width="1" height="1" fill="#44211B" />
<rect x="3" y="21" width="1" height="1" fill="#AAAA55" opacity="0.011765" />
<rect x="4" y="21" width="1" height="1" fill="#44211B" />
<rect x="5" y="21" width="1" height="1" fill="#44211B" />
<rect x="6" y="21" width="1" height="1" fill="#44211B" />
</svg>