<?xml version="1.0" encoding="UTF-8" ?>
<svg version="1.1" width="128" height="128" xmlns="http://www.w3.org/2000/svg" shape-rendering="crispEdges">
<rect x="72" y="38" width="2" height="2" fill="#44211B" />
<rect x="74" y="38" width="2" height="2" fill="#44211B" />
<rect x="76" y="38" width="2" height="2" fill="#44211B" />
<rect x="78" y="38" width="2" height="2" fill="#44211B" />
<rect x="80" y="38" width="2" height="2" fill="#44211B" />
<rect x="82" y="38" width="2" height="2" fill="#44211B" />
<rect x="84" y="38" width="2" height="2" fill="#44211B" />
<rect x="86" y="38" width="2" height="2" fill="#44211B" />
<rect x="88" y="38" width="2" height="2" fill="#44211B" />
<rect x="90" y="38" width="2" height="2" fill="#44211B" />
<rect x="92" y="38" width="2" height="2" fill="#44211B" />
<rect x="70" y="40" width="2" height="2" fill="#44211B" />
<rect x="72" y="40" width="2" height="2" fill="#C47238" />
<rect x="74" y="40" width="2" height="2" fill="#C47238" />
<rect x="76" y="40" width="2" height="2" fill="#8F563B" />
<rect x="78" y="40" width="2" height="2" fill="#8F563B" />
<rect x="80" y="40" width="2" height="2" fill="#8F563B" />
<rect x="82" y="40" width="2" height="2" fill="#8F563B" />
<rect x="84" y="40" width="2" height="2" fill="#8F563B" />
<rect x="86" y="40" width="2" height="2" fill="#8F563B" />
<rect x="88" y="40" width="2" height="2" fill="#8F563B" />
<rect x="90" y="40" width="2" height="2" fill="#8F563B" />
<rect x="92" y="40" width="2" height="2" fill="#8F563B" />
<rect x="94" y="40" width="2" height="2" fill="#44211B" />
<rect x="68" y="42" width="2" height="2" fill="#44211B" />
<rect x="70" y="42" width="2" height="2" fill="#C47238" />
<rect x="72" y="42" width="2" height="2" fill="#C47238" />
<rect x="74" y="42" width="2" height="2" fill="#C47238" />
<rect x="76" y="42" width="2" height="2" fill="#8F563B" />
<rect x="78" y="42" width="2" height="2" fill="#8F563B" />
<rect x="80" y="42" width="2" height="2" fill="#8F563B" />
<rect x="82" y="42" width="2" height="2" fill="#8F563B" />
<rect x="84" y="42" width="2" height="2" fill="#8F563B" />
<rect x="86" y="42" width="2" height="2" fill="#8F563B" />
<rect x="88" y="42" width="2" height="2" fill="#8F563B" />
<rect x="90" y="42" width="2" height="2" fill="#8F563B" />
<rect x="92" y="42" width="2" height="2" fill="#8F563B" />
<rect x="94" y="42" width="2" height="2" fill="#44211B" />
<rect x="66" y="44" width="2" height="2" fill="#44211B" />
<rect x="68" y="44" width="2" height="2" fill="#C47238" />
<rect x="70" y="44" width="2" height="2" fill="#C47238" />
<rect x="72" y="44" width="2" height="2" fill="#C47238" />
<rect x="74" y="44" width="2" height="2" fill="#C47238" />
<rect x="76" y="44" width="2" height="2" fill="#8F563B" />
<rect x="78" y="44" width="2" height="2" fill="#8F563B" />
<rect x="80" y="44" width="2" height="2" fill="#8F563B" />
<rect x="82" y="44" width="2" height="2" fill="#8F563B" />
<rect x="84" y="44" width="2" height="2" fill="#8F563B" />
<rect x="86" y="44" width="2" height="2" fill="#8F563B" />
<rect x="88" y="44" width="2" height="2" fill="#8F563B" />
<rect x="90" y="44" width="2" height="2" fill="#8F563B" />
<rect x="92" y="44" width="2" height="2" fill="#8F563B" />
<rect x="94" y="44" width="2" height="2" fill="#8F563B" />
<rect x="96" y="44" width="2" height="2" fill="#44211B" />
<rect x="66" y="46" width="2" height="2" fill="#44211B" />
<rect x="68" y="46" width="2" height="2" fill="#C47238" />
<rect x="70" y="46" width="2" height="2" fill="#C47238" />
<rect x="72" y="46" width="2" height="2" fill="#C47238" />
<rect x="74" y="46" width="2" height="2" fill="#C47238" />
<rect x="76" y="46" width="2" height="2" fill="#8F563B" />
<rect x="78" y="46" width="2" height="2" fill="#8F563B" />
<rect x="80" y="46" width="2" height="2" fill="#8F563B" />
<rect x="82" y="46" width="2" height="2" fill="#8F563B" />
<rect x="84" y="46" width="2" height="2" fill="#8F563B" />
<rect x="86" y="46" width="2" height="2" fill="#8F563B" />
<rect x="88" y="46" width="2" height="2" fill="#44211B" />
<rect x="90" y="46" width="2" height="2" fill="#8F563B" />
<rect x="92" y="46" width="2" height="2" fill="#8F563B" />
<rect x="94" y="46" width="2" height="2" fill="#8F563B" />
<rect x="96" y="46" width="2" height="2" fill="#8F563B" />
<rect x="98" y="46" width="2" height="2" fill="#44211B" />
<rect x="64" y="48" width="2" height="2" fill="#44211B" />
<rect x="66" y="48" width="2" height="2" fill="#C47238" />
<rect x="68" y="48" width="2" height="2" fill="#C47238" />
<rect x="70" y="48" width="2" height="2" fill="#C47238" />
<rect x="72" y="48" width="2" height="2" fill="#C47238" />
<rect x="74" y="48" width="2" height="2" fill="#C47238" />
<rect x="76" y="48" width="2" height="2" fill="#8F563B" />
<rect x="78" y="48" width="2" height="2" fill="#8F563B" />
<rect x="80" y="48" width="2" height="2" fill="#8F563B" />
<rect x="82" y="48" width="2" height="2" fill="#8F563B" />
<rect x="84" y="48" width="2" height="2" fill="#8F563B" />
<rect x="86" y="48" width="2" height="2" fill="#44211B" />
<rect x="88" y="48" width="2" height="2" fill="#44211B" />
<rect x="90" y="48" width="2" height="2" fill="#8F563B" />
<rect x="92" y="48" width="2" height="2" fill="#C47238" />
<rect x="94" y="48" width="2" height="2" fill="#C47238" />
<rect x="96" y="48" width="2" height="2" fill="#C47238" />
<rect x="98" y="48" width="2" height="2" fill="#C47238" />
<rect x="100" y="48" width="2" height="2" fill="#44211B" />
<rect x="102" y="48" width="2" height="2" fill="#44211B" />
<rect x="104" y="48" width="2" height="2" fill="#44211B" />
<rect x="106" y="48" width="2" height="2" fill="#44211B" />
<rect x="64" y="50" width="2" height="2" fill="#44211B" />
<rect x="66" y="50" width="2" height="2" fill="#C47238" />
<rect x="68" y="50" width="2" height="2" fill="#C47238" />
<rect x="70" y="50" width="2" height="2" fill="#C47238" />
<rect x="72" y="50" width="2" height="2" fill="#C47238" />
<rect x="74" y="50" width="2" height="2" fill="#C47238" />
<rect x="76" y="50" width="2" height="2" fill="#8F563B" />
<rect x="78" y="50" width="2" height="2" fill="#8F563B" />
<rect x="80" y="50" width="2" height="2" fill="#8F563B" />
<rect x="82" y="50" width="2" height="2" fill="#8F563B" />
<rect x="84" y="50" width="2" height="2" fill="#8F563B" />
<rect x="86" y="50" width="2" height="2" fill="#44211B" />
<rect x="88" y="50" width="2" height="2" fill="#44211B" />
<rect x="90" y="50" width="2" height="2" fill="#C47238" />
<rect x="92" y="50" width="2" height="2" fill="#C47238" />
<rect x="94" y="50" width="2" height="2" fill="#C47238" />
<rect x="96" y="50" width="2" height="2" fill="#C47238" />
<rect x="98" y="50" width="2" height="2" fill="#C47238" />
<rect x="100" y="50" width="2" height="2" fill="#C47238" />
<rect x="102" y="50" width="2" height="2" fill="#44211B" />
<rect x="104" y="50" width="2" height="2" fill="#44211B" />
<rect x="106" y="50" width="2" height="2" fill="#44211B" />
<rect x="108" y="50" width="2" height="2" fill="#44211B" />
<rect x="64" y="52" width="2" height="2" fill="#44211B" />
<rect x="66" y="52" width="2" height="2" fill="#C47238" />
<rect x="68" y="52" width="2" height="2" fill="#C47238" />
<rect x="70" y="52" width="2" height="2" fill="#C47238" />
<rect x="72" y="52" width="2" height="2" fill="#C47238" />
<rect x="74" y="52" width="2" height="2" fill="#C47238" />
<rect x="76" y="52" width="2" height="2" fill="#8F563B" />
<rect x="78" y="52" width="2" height="2" fill="#8F563B" />
<rect x="80" y="52" width="2" height="2" fill="#8F563B" />
<rect x="82" y="52" width="2" height="2" fill="#8F563B" />
<rect x="84" y="52" width="2" height="2" fill="#8F563B" />
<rect x="86" y="52" width="2" height="2" fill="#44211B" />
<rect x="88" y="52" width="2" height="2" fill="#44211B" />
<rect x="90" y="52" width="2" height="2" fill="#C47238" />
<rect x="92" y="52" width="2" height="2" fill="#C47238" />
<rect x="94" y="52" width="2" height="2" fill="#C47238" />
<rect x="96" y="52" width="2" height="2" fill="#C47238" />
<rect x="98" y="52" width="2" height="2" fill="#C47238" />
<rect x="100" y="52" width="2" height="2" fill="#C47238" />
<rect x="102" y="52" width="2" height="2" fill="#C47238" />
<rect x="104" y="52" width="2" height="2" fill="#44211B" />
<rect x="106" y="52" width="2" height="2" fill="#44211B" />
<rect x="108" y="52" width="2" height="2" fill="#44211B" />
<rect x="28" y="54" width="2" height="2" fill="#44211B" />
<rect x="30" y="54" width="2" height="2" fill="#44211B" />
<rect x="32" y="54" width="2" height="2" fill="#44211B" />
<rect x="34" y="54" width="2" height="2" fill="#44211B" />
<rect x="36" y="54" width="2" height="2" fill="#44211B" />
<rect x="38" y="54" width="2" height="2" fill="#44211B" />
<rect x="40" y="54" width="2" height="2" fill="#44211B" />
<rect x="42" y="54" width="2" height="2" fill="#44211B" />
<rect x="44" y="54" width="2" height="2" fill="#44211B" />
<rect x="46" y="54" width="2" height="2" fill="#44211B" />
<rect x="48" y="54" width="2" height="2" fill="#44211B" />
<rect x="50" y="54" width="2" height="2" fill="#44211B" />
<rect x="52" y="54" width="2" height="2" fill="#44211B" />
<rect x="54" y="54" width="2" height="2" fill="#44211B" />
<rect x="56" y="54" width="2" height="2" fill="#44211B" />
<rect x="58" y="54" width="2" height="2" fill="#44211B" />
<rect x="60" y="54" width="2" height="2" fill="#44211B" />
<rect x="62" y="54" width="2" height="2" fill="#44211B" />
<rect x="64" y="54" width="2" height="2" fill="#C47238" />
<rect x="66" y="54" width="2" height="2" fill="#C47238" />
<rect x="68" y="54" width="2" height="2" fill="#C47238" />
<rect x="70" y="54" width="2" height="2" fill="#C47238" />
<rect x="72" y="54" width="2" height="2" fill="#C47238" />
<rect x="74" y="54" width="2" height="2" fill="#C47238" />
<rect x="76" y="54" width="2" height="2" fill="#8F563B" />
<rect x="78" y="54" width="2" height="2" fill="#8F563B" />
<rect x="80" y="54" width="2" height="2" fill="#8F563B" />
<rect x="82" y="54" width="2" height="2" fill="#8F563B" />
<rect x="84" y="54" width="2" height="2" fill="#8F563B" />
<rect x="86" y="54" width="2" height="2" fill="#C47238" />
<rect x="88" y="54" width="2" height="2" fill="#C47238" />
<rect x="90" y="54" width="2" height="2" fill="#C47238" />
<rect x="92" y="54" width="2" height="2" fill="#C47238" />
<rect x="94" y="54" width="2" height="2" fill="#C47238" />
<rect x="96" y="54" width="2" height="2" fill="#C47238" />
<rect x="98" y="54" width="2" height="2" fill="#C47238" />
<rect x="100" y="54" width="2" height="2" fill="#C47238" />
<rect x="102" y="54" width="2" height="2" fill="#C47238" />
<rect x="104" y="54" width="2" height="2" fill="#C47238" />
<rect x="106" y="54" width="2" height="2" fill="#C47238" />
<rect x="108" y="54" width="2" height="2" fill="#44211B" />
<rect x="24" y="56" width="2" height="2" fill="#44211B" />
<rect x="26" y="56" width="2" height="2" fill="#44211B" />
<rect x="28" y="56" width="2" height="2" fill="#8F563B" />
<rect x="30" y="56" width="2" height="2" fill="#8F563B" />
<rect x="32" y="56" width="2" height="2" fill="#8F563B" />
<rect x="34" y="56" width="2" height="2" fill="#8F563B" />
<rect x="36" y="56" width="2" height="2" fill="#8F563B" />
<rect x="38" y="56" width="2" height="2" fill="#8F563B" />
<rect x="40" y="56" width="2" height="2" fill="#8F563B" />
<rect x="42" y="56" width="2" height="2" fill="#8F563B" />
<rect x="44" y="56" width="2" height="2" fill="#8F563B" />
<rect x="46" y="56" width="2" height="2" fill="#8F563B" />
<rect x="48" y="56" width="2" height="2" fill="#8F563B" />
<rect x="50" y="56" width="2" height="2" fill="#8F563B" />
<rect x="52" y="56" width="2" height="2" fill="#8F563B" />
<rect x="54" y="56" width="2" height="2" fill="#8F563B" />
<rect x="56" y="56" width="2" height="2" fill="#8F563B" />
<rect x="58" y="56" width="2" height="2" fill="#8F563B" />
<rect x="60" y="56" width="2" height="2" fill="#8F563B" />
<rect x="62" y="56" width="2" height="2" fill="#8F563B" />
<rect x="64" y="56" width="2" height="2" fill="#44211B" />
<rect x="66" y="56" width="2" height="2" fill="#C47238" />
<rect x="68" y="56" width="2" height="2" fill="#C47238" />
<rect x="70" y="56" width="2" height="2" fill="#C47238" />
<rect x="72" y="56" width="2" height="2" fill="#C47238" />
<rect x="74" y="56" width="2" height="2" fill="#C47238" />
<rect x="76" y="56" width="2" height="2" fill="#8F563B" />
<rect x="78" y="56" width="2" height="2" fill="#8F563B" />
<rect x="80" y="56" width="2" height="2" fill="#8F563B" />
<rect x="82" y="56" width="2" height="2" fill="#8F563B" />
<rect x="84" y="56" width="2" height="2" fill="#8F563B" />
<rect x="86" y="56" width="2" height="2" fill="#C47238" />
<rect x="88" y="56" width="2" height="2" fill="#C47238" />
<rect x="90" y="56" width="2" height="2" fill="#C47238" />
<rect x="92" y="56" width="2" height="2" fill="#C47238" />
<rect x="94" y="56" width="2" height="2" fill="#C47238" />
<rect x="96" y="56" width="2" height="2" fill="#C47238" />
<rect x="98" y="56" width="2" height="2" fill="#C47238" />
<rect x="100" y="56" width="2" height="2" fill="#C47238" />
<rect x="102" y="56" width="2" height="2" fill="#C47238" />
<rect x="104" y="56" width="2" height="2" fill="#C47238" />
<rect x="106" y="56" width="2" height="2" fill="#44211B" />
<rect x="22" y="58" width="2" height="2" fill="#44211B" />
<rect x="24" y="58" width="2" height="2" fill="#8F563B" />
<rect x="26" y="58" width="2" height="2" fill="#8F563B" />
<rect x="28" y="58" width="2" height="2" fill="#8F563B" />
<rect x="30" y="58" width="2" height="2" fill="#8F563B" />
<rect x="32" y="58" width="2" height="2" fill="#8F563B" />
<rect x="34" y="58" width="2" height="2" fill="#8F563B" />
<rect x="36" y="58" width="2" height="2" fill="#8F563B" />
<rect x="38" y="58" width="2" height="2" fill="#8F563B" />
<rect x="40" y="58" width="2" height="2" fill="#8F563B" />
<rect x="42" y="58" width="2" height="2" fill="#8F563B" />
<rect x="44" y="58" width="2" height="2" fill="#8F563B" />
<rect x="46" y="58" width="2" height="2" fill="#8F563B" />
<rect x="48" y="58" width="2" height="2" fill="#8F563B" />
<rect x="50" y="58" width="2" height="2" fill="#8F563B" />
<rect x="52" y="58" width="2" height="2" fill="#8F563B" />
<rect x="54" y="58" width="2" height="2" fill="#8F563B" />
<rect x="56" y="58" width="2" height="2" fill="#8F563B" />
<rect x="58" y="58" width="2" height="2" fill="#8F563B" />
<rect x="60" y="58" width="2" height="2" fill="#8F563B" />
<rect x="62" y="58" width="2" height="2" fill="#8F563B" />
<rect x="64" y="58" width="2" height="2" fill="#8F563B" />
<rect x="66" y="58" width="2" height="2" fill="#44211B" />
<rect x="68" y="58" width="2" height="2" fill="#C47238" />
<rect x="70" y="58" width="2" height="2" fill="#C47238" />
<rect x="72" y="58" width="2" height="2" fill="#C47238" />
<rect x="74" y="58" width="2" height="2" fill="#C47238" />
<rect x="76" y="58" width="2" height="2" fill="#8F563B" />
<rect x="78" y="58" width="2" height="2" fill="#8F563B" />
<rect x="80" y="58" width="2" height="2" fill="#8F563B" />
<rect x="82" y="58" width="2" height="2" fill="#8F563B" />
<rect x="84" y="58" width="2" height="2" fill="#8F563B" />
<rect x="86" y="58" width="2" height="2" fill="#C47238" />
<rect x="88" y="58" width="2" height="2" fill="#C47238" />
<rect x="90" y="58" width="2" height="2" fill="#C47238" />
<rect x="92" y="58" width="2" height="2" fill="#C47238" />
<rect x="94" y="58" width="2" height="2" fill="#C47238" />
<rect x="96" y="58" width="2" height="2" fill="#C47238" />
<rect x="98" y="58" width="2" height="2" fill="#C47238" />
<rect x="100" y="58" width="2" height="2" fill="#C47238" />
<rect x="102" y="58" width="2" height="2" fill="#C47238" />
<rect x="104" y="58" width="2" height="2" fill="#44211B" />
<rect x="20" y="60" width="2" height="2" fill="#44211B" />
<rect x="22" y="60" width="2" height="2" fill="#8F563B" />
<rect x="24" y="60" width="2" height="2" fill="#8F563B" />
<rect x="26" y="60" width="2" height="2" fill="#8F563B" />
<rect x="28" y="60" width="2" height="2" fill="#8F563B" />
<rect x="30" y="60" width="2" height="2" fill="#8F563B" />
<rect x="32" y="60" width="2" height="2" fill="#8F563B" />
<rect x="34" y="60" width="2" height="2" fill="#8F563B" />
<rect x="36" y="60" width="2" height="2" fill="#8F563B" />
<rect x="38" y="60" width="2" height="2" fill="#8F563B" />
<rect x="40" y="60" width="2" height="2" fill="#8F563B" />
<rect x="42" y="60" width="2" height="2" fill="#8F563B" />
<rect x="44" y="60" width="2" height="2" fill="#8F563B" />
<rect x="46" y="60" width="2" height="2" fill="#8F563B" />
<rect x="48" y="60" width="2" height="2" fill="#8F563B" />
<rect x="50" y="60" width="2" height="2" fill="#8F563B" />
<rect x="52" y="60" width="2" height="2" fill="#8F563B" />
<rect x="54" y="60" width="2" height="2" fill="#8F563B" />
<rect x="56" y="60" width="2" height="2" fill="#8F563B" />
<rect x="58" y="60" width="2" height="2" fill="#8F563B" />
<rect x="60" y="60" width="2" height="2" fill="#8F563B" />
<rect x="62" y="60" width="2" height="2" fill="#8F563B" />
<rect x="64" y="60" width="2" height="2" fill="#8F563B" />
<rect x="66" y="60" width="2" height="2" fill="#8F563B" />
<rect x="68" y="60" width="2" height="2" fill="#44211B" />
<rect x="70" y="60" width="2" height="2" fill="#C47238" />
<rect x="72" y="60" width="2" height="2" fill="#C47238" />
<rect x="74" y="60" width="2" height="2" fill="#44211B" />
<rect x="76" y="60" width="2" height="2" fill="#8F563B" />
<rect x="78" y="60" width="2" height="2" fill="#8F563B" />
<rect x="80" y="60" width="2" height="2" fill="#8F563B" />
<rect x="82" y="60" width="2" height="2" fill="#8F563B" />
<rect x="84" y="60" width="2" height="2" fill="#8F563B" />
<rect x="86" y="60" width="2" height="2" fill="#8F563B" />
<rect x="88" y="60" width="2" height="2" fill="#C47238" />
<rect x="90" y="60" width="2" height="2" fill="#C47238" />
<rect x="92" y="60" width="2" height="2" fill="#C47238" />
<rect x="94" y="60" width="2" height="2" fill="#C47238" />
<rect x="96" y="60" width="2" height="2" fill="#C47238" />
<rect x="98" y="60" width="2" height="2" fill="#C47238" />
<rect x="100" y="60" width="2" height="2" fill="#C47238" />
<rect x="102" y="60" width="2" height="2" fill="#44211B" />
<rect x="16" y="62" width="2" height="2" fill="#44211B" />
<rect x="18" y="62" width="2" height="2" fill="#44211B" />
<rect x="20" y="62" width="2" height="2" fill="#8F563B" />
<rect x="22" y="62" width="2" height="2" fill="#8F563B" />
<rect x="24" y="62" width="2" height="2" fill="#8F563B" />
<rect x="26" y="62" width="2" height="2" fill="#8F563B" />
<rect x="28" y="62" width="2" height="2" fill="#8F563B" />
<rect x="30" y="62" width="2" height="2" fill="#8F563B" />
<rect x="32" y="62" width="2" height="2" fill="#8F563B" />
<rect x="34" y="62" width="2" height="2" fill="#8F563B" />
<rect x="36" y="62" width="2" height="2" fill="#8F563B" />
<rect x="38" y="62" width="2" height="2" fill="#8F563B" />
<rect x="40" y="62" width="2" height="2" fill="#8F563B" />
<rect x="42" y="62" width="2" height="2" fill="#8F563B" />
<rect x="44" y="62" width="2" height="2" fill="#8F563B" />
<rect x="46" y="62" width="2" height="2" fill="#8F563B" />
<rect x="48" y="62" width="2" height="2" fill="#8F563B" />
<rect x="50" y="62" width="2" height="2" fill="#8F563B" />
<rect x="52" y="62" width="2" height="2" fill="#8F563B" />
<rect x="54" y="62" width="2" height="2" fill="#8F563B" />
<rect x="56" y="62" width="2" height="2" fill="#8F563B" />
<rect x="58" y="62" width="2" height="2" fill="#8F563B" />
<rect x="60" y="62" width="2" height="2" fill="#8F563B" />
<rect x="62" y="62" width="2" height="2" fill="#8F563B" />
<rect x="64" y="62" width="2" height="2" fill="#8F563B" />
<rect x="66" y="62" width="2" height="2" fill="#8F563B" />
<rect x="68" y="62" width="2" height="2" fill="#8F563B" />
<rect x="70" y="62" width="2" height="2" fill="#44211B" />
<rect x="72" y="62" width="2" height="2" fill="#44211B" />
<rect x="74" y="62" width="2" height="2" fill="#8F563B" />
<rect x="76" y="62" width="2" height="2" fill="#8F563B" />
<rect x="78" y="62" width="2" height="2" fill="#8F563B" />
<rect x="80" y="62" width="2" height="2" fill="#8F563B" />
<rect x="82" y="62" width="2" height="2" fill="#8F563B" />
<rect x="84" y="62" width="2" height="2" fill="#8F563B" />
<rect x="86" y="62" width="2" height="2" fill="#8F563B" />
<rect x="88" y="62" width="2" height="2" fill="#8F563B" />
<rect x="90" y="62" width="2" height="2" fill="#8F563B" />
<rect x="92" y="62" width="2" height="2" fill="#C47238" />
<rect x="94" y="62" width="2" height="2" fill="#C47238" />
<rect x="96" y="62" width="2" height="2" fill="#C47238" />
<rect x="98" y="62" width="2" height="2" fill="#44211B" />
<rect x="100" y="62" width="2" height="2" fill="#44211B" />
<rect x="14" y="64" width="2" height="2" fill="#44211B" />
<rect x="16" y="64" width="2" height="2" fill="#8F563B" />
<rect x="18" y="64" width="2" height="2" fill="#8F563B" />
<rect x="20" y="64" width="2" height="2" fill="#8F563B" />
<rect x="22" y="64" width="2" height="2" fill="#8F563B" />
<rect x="24" y="64" width="2" height="2" fill="#8F563B" />
<rect x="26" y="64" width="2" height="2" fill="#8F563B" />
<rect x="28" y="64" width="2" height="2" fill="#8F563B" />
<rect x="30" y="64" width="2" height="2" fill="#8F563B" />
<rect x="32" y="64" width="2" height="2" fill="#8F563B" />
<rect x="34" y="64" width="2" height="2" fill="#8F563B" />
<rect x="36" y="64" width="2" height="2" fill="#8F563B" />
<rect x="38" y="64" width="2" height="2" fill="#8F563B" />
<rect x="40" y="64" width="2" height="2" fill="#8F563B" />
<rect x="42" y="64" width="2" height="2" fill="#8F563B" />
<rect x="44" y="64" width="2" height="2" fill="#8F563B" />
<rect x="46" y="64" width="2" height="2" fill="#8F563B" />
<rect x="48" y="64" width="2" height="2" fill="#8F563B" />
<rect x="50" y="64" width="2" height="2" fill="#8F563B" />
<rect x="52" y="64" width="2" height="2" fill="#8F563B" />
<rect x="54" y="64" width="2" height="2" fill="#8F563B" />
<rect x="56" y="64" width="2" height="2" fill="#8F563B" />
<rect x="58" y="64" width="2" height="2" fill="#8F563B" />
<rect x="60" y="64" width="2" height="2" fill="#8F563B" />
<rect x="62" y="64" width="2" height="2" fill="#8F563B" />
<rect x="64" y="64" width="2" height="2" fill="#8F563B" />
<rect x="66" y="64" width="2" height="2" fill="#8F563B" />
<rect x="68" y="64" width="2" height="2" fill="#8F563B" />
<rect x="70" y="64" width="2" height="2" fill="#8F563B" />
<rect x="72" y="64" width="2" height="2" fill="#8F563B" />
<rect x="74" y="64" width="2" height="2" fill="#8F563B" />
<rect x="76" y="64" width="2" height="2" fill="#8F563B" />
<rect x="78" y="64" width="2" height="2" fill="#8F563B" />
<rect x="80" y="64" width="2" height="2" fill="#8F563B" />
<rect x="82" y="64" width="2" height="2" fill="#8F563B" />
<rect x="84" y="64" width="2" height="2" fill="#8F563B" />
<rect x="86" y="64" width="2" height="2" fill="#8F563B" />
<rect x="88" y="64" width="2" height="2" fill="#8F563B" />
<rect x="90" y="64" width="2" height="2" fill="#8F563B" />
<rect x="92" y="64" width="2" height="2" fill="#44211B" />
<rect x="94" y="64" width="2" height="2" fill="#44211B" />
<rect x="96" y="64" width="2" height="2" fill="#44211B" />
<rect x="12" y="66" width="2" height="2" fill="#44211B" />
<rect x="14" y="66" width="2" height="2" fill="#8F563B" />
<rect x="16" y="66" width="2" height="2" fill="#8F563B" />
<rect x="18" y="66" width="2" height="2" fill="#8F563B" />
<rect x="20" y="66" width="2" height="2" fill="#8F563B" />
<rect x="22" y="66" width="2" height="2" fill="#8F563B" />
<rect x="24" y="66" width="2" height="2" fill="#8F563B" />
<rect x="26" y="66" width="2" height="2" fill="#8F563B" />
<rect x="28" y="66" width="2" height="2" fill="#8F563B" />
<rect x="30" y="66" width="2" height="2" fill="#8F563B" />
<rect x="32" y="66" width="2" height="2" fill="#8F563B" />
<rect x="34" y="66" width="2" height="2" fill="#8F563B" />
<rect x="36" y="66" width="2" height="2" fill="#8F563B" />
<rect x="38" y="66" width="2" height="2" fill="#8F563B" />
<rect x="40" y="66" width="2" height="2" fill="#8F563B" />
<rect x="42" y="66" width="2" height="2" fill="#8F563B" />
<rect x="44" y="66" width="2" height="2" fill="#8F563B" />
<rect x="46" y="66" width="2" height="2" fill="#8F563B" />
<rect x="48" y="66" width="2" height="2" fill="#8F563B" />
<rect x="50" y="66" width="2" height="2" fill="#8F563B" />
<rect x="52" y="66" width="2" height="2" fill="#8F563B" />
<rect x="54" y="66" width="2" height="2" fill="#8F563B" />
<rect x="56" y="66" width="2" height="2" fill="#8F563B" />
<rect x="58" y="66" width="2" height="2" fill="#8F563B" />
<rect x="60" y="66" width="2" height="2" fill="#8F563B" />
<rect x="62" y="66" width="2" height="2" fill="#8F563B" />
<rect x="64" y="66" width="2" height="2" fill="#8F563B" />
<rect x="66" y="66" width="2" height="2" fill="#8F563B" />
<rect x="68" y="66" width="2" height="2" fill="#8F563B" />
<rect x="70" y="66" width="2" height="2" fill="#8F563B" />
<rect x="72" y="66" width="2" height="2" fill="#8F563B" />
<rect x="74" y="66" width="2" height="2" fill="#8F563B" />
<rect x="76" y="66" width="2" height="2" fill="#8F563B" />
<rect x="78" y="66" width="2" height="2" fill="#8F563B" />
<rect x="80" y="66" width="2" height="2" fill="#8F563B" />
<rect x="82" y="66" width="2" height="2" fill="#8F563B" />
<rect x="84" y="66" width="2" height="2" fill="#8F563B" />
<rect x="86" y="66" width="2" height="2" fill="#8F563B" />
<rect x="88" y="66" width="2" height="2" fill="#8F563B" />
<rect x="90" y="66" width="2" height="2" fill="#8F563B" />
<rect x="92" y="66" width="2" height="2" fill="#44211B" />
<rect x="12" y="68" width="2" height="2" fill="#44211B" />
<rect x="14" y="68" width="2" height="2" fill="#8F563B" />
<rect x="16" y="68" width="2" height="2" fill="#8F563B" />
<rect x="18" y="68" width="2" height="2" fill="#44211B" />
<rect x="20" y="68" width="2" height="2" fill="#44211B" />
<rect x="22" y="68" width="2" height="2" fill="#8F563B" />
<rect x="24" y="68" width="2" height="2" fill="#8F563B" />
<rect x="26" y="68" width="2" height="2" fill="#8F563B" />
<rect x="28" y="68" width="2" height="2" fill="#8F563B" />
<rect x="30" y="68" width="2" height="2" fill="#8F563B" />
<rect x="32" y="68" width="2" height="2" fill="#8F563B" />
<rect x="34" y="68" width="2" height="2" fill="#8F563B" />
<rect x="36" y="68" width="2" height="2" fill="#8F563B" />
<rect x="38" y="68" width="2" height="2" fill="#8F563B" />
<rect x="40" y="68" width="2" height="2" fill="#8F563B" />
<rect x="42" y="68" width="2" height="2" fill="#8F563B" />
<rect x="44" y="68" width="2" height="2" fill="#8F563B" />
<rect x="46" y="68" width="2" height="2" fill="#8F563B" />
<rect x="48" y="68" width="2" height="2" fill="#8F563B" />
<rect x="50" y="68" width="2" height="2" fill="#8F563B" />
<rect x="52" y="68" width="2" height="2" fill="#8F563B" />
<rect x="54" y="68" width="2" height="2" fill="#8F563B" />
<rect x="56" y="68" width="2" height="2" fill="#8F563B" />
<rect x="58" y="68" width="2" height="2" fill="#8F563B" />
<rect x="60" y="68" width="2" height="2" fill="#8F563B" />
<rect x="62" y="68" width="2" height="2" fill="#8F563B" />
<rect x="64" y="68" width="2" height="2" fill="#8F563B" />
<rect x="66" y="68" width="2" height="2" fill="#8F563B" />
<rect x="68" y="68" width="2" height="2" fill="#8F563B" />
<rect x="70" y="68" width="2" height="2" fill="#8F563B" />
<rect x="72" y="68" width="2" height="2" fill="#8F563B" />
<rect x="74" y="68" width="2" height="2" fill="#8F563B" />
<rect x="76" y="68" width="2" height="2" fill="#8F563B" />
<rect x="78" y="68" width="2" height="2" fill="#8F563B" />
<rect x="80" y="68" width="2" height="2" fill="#8F563B" />
<rect x="82" y="68" width="2" height="2" fill="#8F563B" />
<rect x="84" y="68" width="2" height="2" fill="#8F563B" />
<rect x="86" y="68" width="2" height="2" fill="#8F563B" />
<rect x="88" y="68" width="2" height="2" fill="#8F563B" />
<rect x="90" y="68" width="2" height="2" fill="#8F563B" />
<rect x="92" y="68" width="2" height="2" fill="#44211B" />
<rect x="10" y="70" width="2" height="2" fill="#44211B" />
<rect x="12" y="70" width="2" height="2" fill="#8F563B" />
<rect x="14" y="70" width="2" height="2" fill="#8F563B" />
<rect x="16" y="70" width="2" height="2" fill="#44211B" />
<rect x="18" y="70" width="2" height="2" fill="#44211B" />
<rect x="22" y="70" width="2" height="2" fill="#44211B" />
<rect x="24" y="70" width="2" height="2" fill="#8F563B" />
<rect x="26" y="70" width="2" height="2" fill="#8F563B" />
<rect x="28" y="70" width="2" height="2" fill="#8F563B" />
<rect x="30" y="70" width="2" height="2" fill="#8F563B" />
<rect x="32" y="70" width="2" height="2" fill="#8F563B" />
<rect x="34" y="70" width="2" height="2" fill="#8F563B" />
<rect x="36" y="70" width="2" height="2" fill="#8F563B" />
<rect x="38" y="70" width="2" height="2" fill="#8F563B" />
<rect x="40" y="70" width="2" height="2" fill="#8F563B" />
<rect x="42" y="70" width="2" height="2" fill="#8F563B" />
<rect x="44" y="70" width="2" height="2" fill="#8F563B" />
<rect x="46" y="70" width="2" height="2" fill="#8F563B" />
<rect x="48" y="70" width="2" height="2" fill="#8F563B" />
<rect x="50" y="70" width="2" height="2" fill="#8F563B" />
<rect x="52" y="70" width="2" height="2" fill="#8F563B" />
<rect x="54" y="70" width="2" height="2" fill="#8F563B" />
<rect x="56" y="70" width="2" height="2" fill="#8F563B" />
<rect x="58" y="70" width="2" height="2" fill="#8F563B" />
<rect x="60" y="70" width="2" height="2" fill="#8F563B" />
<rect x="62" y="70" width="2" height="2" fill="#8F563B" />
<rect x="64" y="70" width="2" height="2" fill="#8F563B" />
<rect x="66" y="70" width="2" height="2" fill="#8F563B" />
<rect x="68" y="70" width="2" height="2" fill="#8F563B" />
<rect x="70" y="70" width="2" height="2" fill="#8F563B" />
<rect x="72" y="70" width="2" height="2" fill="#8F563B" />
<rect x="74" y="70" width="2" height="2" fill="#8F563B" />
<rect x="76" y="70" width="2" height="2" fill="#8F563B" />
<rect x="78" y="70" width="2" height="2" fill="#8F563B" />
<rect x="80" y="70" width="2" height="2" fill="#8F563B" />
<rect x="82" y="70" width="2" height="2" fill="#8F563B" />
<rect x="84" y="70" width="2" height="2" fill="#8F563B" />
<rect x="86" y="70" width="2" height="2" fill="#8F563B" />
<rect x="88" y="70" width="2" height="2" fill="#8F563B" />
<rect x="90" y="70" width="2" height="2" fill="#8F563B" />
<rect x="92" y="70" width="2" height="2" fill="#44211B" />
<rect x="10" y="72" width="2" height="2" fill="#44211B" />
<rect x="12" y="72" width="2" height="2" fill="#8F563B" />
<rect x="14" y="72" width="2" height="2" fill="#44211B" />
<rect x="16" y="72" width="2" height="2" fill="#44211B" />
<rect x="22" y="72" width="2" height="2" fill="#44211B" />
<rect x="24" y="72" width="2" height="2" fill="#8F563B" />
<rect x="26" y="72" width="2" height="2" fill="#8F563B" />
<rect x="28" y="72" width="2" height="2" fill="#8F563B" />
<rect x="30" y="72" width="2" height="2" fill="#8F563B" />
<rect x="32" y="72" width="2" height="2" fill="#8F563B" />
<rect x="34" y="72" width="2" height="2" fill="#8F563B" />
<rect x="36" y="72" width="2" height="2" fill="#8F563B" />
<rect x="38" y="72" width="2" height="2" fill="#8F563B" />
<rect x="40" y="72" width="2" height="2" fill="#8F563B" />
<rect x="42" y="72" width="2" height="2" fill="#8F563B" />
<rect x="44" y="72" width="2" height="2" fill="#8F563B" />
<rect x="46" y="72" width="2" height="2" fill="#8F563B" />
<rect x="48" y="72" width="2" height="2" fill="#8F563B" />
<rect x="50" y="72" width="2" height="2" fill="#8F563B" />
<rect x="52" y="72" width="2" height="2" fill="#8F563B" />
<rect x="54" y="72" width="2" height="2" fill="#8F563B" />
<rect x="56" y="72" width="2" height="2" fill="#8F563B" />
<rect x="58" y="72" width="2" height="2" fill="#8F563B" />
<rect x="60" y="72" width="2" height="2" fill="#8F563B" />
<rect x="62" y="72" width="2" height="2" fill="#8F563B" />
<rect x="64" y="72" width="2" height="2" fill="#8F563B" />
<rect x="66" y="72" width="2" height="2" fill="#8F563B" />
<rect x="68" y="72" width="2" height="2" fill="#8F563B" />
<rect x="70" y="72" width="2" height="2" fill="#8F563B" />
<rect x="72" y="72" width="2" height="2" fill="#8F563B" />
<rect x="74" y="72" width="2" height="2" fill="#8F563B" />
<rect x="76" y="72" width="2" height="2" fill="#8F563B" />
<rect x="78" y="72" width="2" height="2" fill="#8F563B" />
<rect x="80" y="72" width="2" height="2" fill="#8F563B" />
<rect x="82" y="72" width="2" height="2" fill="#44211B" />
<rect x="84" y="72" width="2" height="2" fill="#8F563B" />
<rect x="86" y="72" width="2" height="2" fill="#8F563B" />
<rect x="88" y="72" width="2" height="2" fill="#8F563B" />
<rect x="90" y="72" width="2" height="2" fill="#44211B" />
<rect x="10" y="74" width="2" height="2" fill="#44211B" />
<rect x="12" y="74" width="2" height="2" fill="#44211B" />
<rect x="22" y="74" width="2" height="2" fill="#44211B" />
<rect x="24" y="74" width="2" height="2" fill="#8F563B" />
<rect x="26" y="74" width="2" height="2" fill="#8F563B" />
<rect x="28" y="74" width="2" height="2" fill="#8F563B" />
<rect x="30" y="74" width="2" height="2" fill="#8F563B" />
<rect x="32" y="74" width="2" height="2" fill="#8F563B" />
<rect x="34" y="74" width="2" height="2" fill="#8F563B" />
<rect x="36" y="74" width="2" height="2" fill="#8F563B" />
<rect x="38" y="74" width="2" height="2" fill="#8F563B" />
<rect x="40" y="74" width="2" height="2" fill="#8F563B" />
<rect x="42" y="74" width="2" height="2" fill="#8F563B" />
<rect x="44" y="74" width="2" height="2" fill="#8F563B" />
<rect x="46" y="74" width="2" height="2" fill="#8F563B" />
<rect x="48" y="74" width="2" height="2" fill="#8F563B" />
<rect x="50" y="74" width="2" height="2" fill="#8F563B" />
<rect x="52" y="74" width="2" height="2" fill="#8F563B" />
<rect x="54" y="74" width="2" height="2" fill="#8F563B" />
<rect x="56" y="74" width="2" height="2" fill="#8F563B" />
<rect x="58" y="74" width="2" height="2" fill="#8F563B" />
<rect x="60" y="74" width="2" height="2" fill="#8F563B" />
<rect x="62" y="74" width="2" height="2" fill="#8F563B" />
<rect x="64" y="74" width="2" height="2" fill="#8F563B" />
<rect x="66" y="74" width="2" height="2" fill="#8F563B" />
<rect x="68" y="74" width="2" height="2" fill="#8F563B" />
<rect x="70" y="74" width="2" height="2" fill="#8F563B" />
<rect x="72" y="74" width="2" height="2" fill="#8F563B" />
<rect x="74" y="74" width="2" height="2" fill="#8F563B" />
<rect x="76" y="74" width="2" height="2" fill="#8F563B" />
<rect x="78" y="74" width="2" height="2" fill="#8F563B" />
<rect x="80" y="74" width="2" height="2" fill="#44211B" />
<rect x="82" y="74" width="2" height="2" fill="#8F563B" />
<rect x="84" y="74" width="2" height="2" fill="#8F563B" />
<rect x="86" y="74" width="2" height="2" fill="#8F563B" />
<rect x="88" y="74" width="2" height="2" fill="#44211B" />
<rect x="22" y="76" width="2" height="2" fill="#44211B" />
<rect x="24" y="76" width="2" height="2" fill="#8F563B" />
<rect x="26" y="76" width="2" height="2" fill="#8F563B" />
<rect x="28" y="76" width="2" height="2" fill="#8F563B" />
<rect x="30" y="76" width="2" height="2" fill="#8F563B" />
<rect x="32" y="76" width="2" height="2" fill="#8F563B" />
<rect x="34" y="76" width="2" height="2" fill="#8F563B" />
<rect x="36" y="76" width="2" height="2" fill="#8F563B" />
<rect x="38" y="76" width="2" height="2" fill="#8F563B" />
<rect x="40" y="76" width="2" height="2" fill="#8F563B" />
<rect x="42" y="76" width="2" height="2" fill="#8F563B" />
<rect x="44" y="76" width="2" height="2" fill="#8F563B" />
<rect x="46" y="76" width="2" height="2" fill="#8F563B" />
<rect x="48" y="76" width="2" height="2" fill="#8F563B" />
<rect x="50" y="76" width="2" height="2" fill="#8F563B" />
<rect x="52" y="76" width="2" height="2" fill="#8F563B" />
<rect x="54" y="76" width="2" height="2" fill="#8F563B" />
<rect x="56" y="76" width="2" height="2" fill="#8F563B" />
<rect x="58" y="76" width="2" height="2" fill="#8F563B" />
<rect x="60" y="76" width="2" height="2" fill="#8F563B" />
<rect x="62" y="76" width="2" height="2" fill="#8F563B" />
<rect x="64" y="76" width="2" height="2" fill="#8F563B" />
<rect x="66" y="76" width="2" height="2" fill="#8F563B" />
<rect x="68" y="76" width="2" height="2" fill="#8F563B" />
<rect x="70" y="76" width="2" height="2" fill="#8F563B" />
<rect x="72" y="76" width="2" height="2" fill="#8F563B" />
<rect x="74" y="76" width="2" height="2" fill="#8F563B" />
<rect x="76" y="76" width="2" height="2" fill="#8F563B" />
<rect x="78" y="76" width="2" height="2" fill="#44211B" />
<rect x="80" y="76" width="2" height="2" fill="#8F563B" />
<rect x="82" y="76" width="2" height="2" fill="#8F563B" />
<rect x="84" y="76" width="2" height="2" fill="#8F563B" />
<rect x="86" y="76" width="2" height="2" fill="#8F563B" />
<rect x="88" y="76" width="2" height="2" fill="#44211B" />
<rect x="22" y="78" width="2" height="2" fill="#44211B" />
<rect x="24" y="78" width="2" height="2" fill="#8F563B" />
<rect x="26" y="78" width="2" height="2" fill="#8F563B" />
<rect x="28" y="78" width="2" height="2" fill="#8F563B" />
<rect x="30" y="78" width="2" height="2" fill="#8F563B" />
<rect x="32" y="78" width="2" height="2" fill="#8F563B" />
<rect x="34" y="78" width="2" height="2" fill="#8F563B" />
<rect x="36" y="78" width="2" height="2" fill="#8F563B" />
<rect x="38" y="78" width="2" height="2" fill="#8F563B" />
<rect x="40" y="78" width="2" height="2" fill="#8F563B" />
<rect x="42" y="78" width="2" height="2" fill="#8F563B" />
<rect x="44" y="78" width="2" height="2" fill="#8F563B" />
<rect x="46" y="78" width="2" height="2" fill="#8F563B" />
<rect x="48" y="78" width="2" height="2" fill="#8F563B" />
<rect x="50" y="78" width="2" height="2" fill="#8F563B" />
<rect x="52" y="78" width="2" height="2" fill="#8F563B" />
<rect x="54" y="78" width="2" height="2" fill="#8F563B" />
<rect x="56" y="78" width="2" height="2" fill="#8F563B" />
<rect x="58" y="78" width="2" height="2" fill="#8F563B" />
<rect x="60" y="78" width="2" height="2" fill="#8F563B" />
<rect x="62" y="78" width="2" height="2" fill="#8F563B" />
<rect x="64" y="78" width="2" height="2" fill="#8F563B" />
<rect x="66" y="78" width="2" height="2" fill="#8F563B" />
<rect x="68" y="78" width="2" height="2" fill="#8F563B" />
<rect x="70" y="78" width="2" height="2" fill="#8F563B" />
<rect x="72" y="78" width="2" height="2" fill="#8F563B" />
<rect x="74" y="78" width="2" height="2" fill="#8F563B" />
<rect x="76" y="78" width="2" height="2" fill="#8F563B" />
<rect x="78" y="78" width="2" height="2" fill="#44211B" />
<rect x="80" y="78" width="2" height="2" fill="#8F563B" />
<rect x="82" y="78" width="2" height="2" fill="#8F563B" />
<rect x="84" y="78" width="2" height="2" fill="#8F563B" />
<rect x="86" y="78" width="2" height="2" fill="#44211B" />
<rect x="22" y="80" width="2" height="2" fill="#44211B" />
<rect x="24" y="80" width="2" height="2" fill="#8F563B" />
<rect x="26" y="80" width="2" height="2" fill="#8F563B" />
<rect x="28" y="80" width="2" height="2" fill="#8F563B" />
<rect x="30" y="80" width="2" height="2" fill="#44211B" />
<rect x="32" y="80" width="2" height="2" fill="#44211B" />
<rect x="34" y="80" width="2" height="2" fill="#44211B" />
<rect x="36" y="80" width="2" height="2" fill="#44211B" />
<rect x="38" y="80" width="2" height="2" fill="#44211B" />
<rect x="40" y="80" width="2" height="2" fill="#44211B" />
<rect x="42" y="80" width="2" height="2" fill="#44211B" />
<rect x="44" y="80" width="2" height="2" fill="#44211B" />
<rect x="46" y="80" width="2" height="2" fill="#44211B" />
<rect x="48" y="80" width="2" height="2" fill="#44211B" />
<rect x="50" y="80" width="2" height="2" fill="#44211B" />
<rect x="52" y="80" width="2" height="2" fill="#44211B" />
<rect x="54" y="80" width="2" height="2" fill="#44211B" />
<rect x="56" y="80" width="2" height="2" fill="#44211B" />
<rect x="58" y="80" width="2" height="2" fill="#44211B" />
<rect x="60" y="80" width="2" height="2" fill="#44211B" />
<rect x="62" y="80" width="2" height="2" fill="#44211B" />
<rect x="64" y="80" width="2" height="2" fill="#44211B" />
<rect x="66" y="80" width="2" height="2" fill="#8F563B" />
<rect x="68" y="80" width="2" height="2" fill="#8F563B" />
<rect x="70" y="80" width="2" height="2" fill="#8F563B" />
<rect x="72" y="80" width="2" height="2" fill="#8F563B" />
<rect x="74" y="80" width="2" height="2" fill="#44211B" />
<rect x="76" y="80" width="2" height="2" fill="#44211B" />
<rect x="78" y="80" width="2" height="2" fill="#44211B" />
<rect x="80" y="80" width="2" height="2" fill="#8F563B" />
<rect x="82" y="80" width="2" height="2" fill="#8F563B" />
<rect x="84" y="80" width="2" height="2" fill="#44211B" />
<rect x="22" y="82" width="2" height="2" fill="#44211B" />
<rect x="24" y="82" width="2" height="2" fill="#C47238" />
<rect x="26" y="82" width="2" height="2" fill="#C47238" />
<rect x="28" y="82" width="2" height="2" fill="#44211B" />
<rect x="36" y="82" width="2" height="2" fill="#44211B" />
<rect x="38" y="82" width="2" height="2" fill="#C47238" />
<rect x="40" y="82" width="2" height="2" fill="#C47238" />
<rect x="42" y="82" width="2" height="2" fill="#44211B" />
<rect x="66" y="82" width="2" height="2" fill="#44211B" />
<rect x="68" y="82" width="2" height="2" fill="#C47238" />
<rect x="70" y="82" width="2" height="2" fill="#C47238" />
<rect x="72" y="82" width="2" height="2" fill="#44211B" />
<rect x="78" y="82" width="2" height="2" fill="#44211B" />
<rect x="80" y="82" width="2" height="2" fill="#C47238" />
<rect x="82" y="82" width="2" height="2" fill="#C47238" />
<rect x="84" y="82" width="2" height="2" fill="#44211B" />
<rect x="22" y="84" width="2" height="2" fill="#44211B" />
<rect x="24" y="84" width="2" height="2" fill="#C47238" />
<rect x="26" y="84" width="2" height="2" fill="#C47238" />
<rect x="28" y="84" width="2" height="2" fill="#44211B" />
<rect x="36" y="84" width="2" height="2" fill="#44211B" />
<rect x="38" y="84" width="2" height="2" fill="#C47238" />
<rect x="40" y="84" width="2" height="2" fill="#C47238" />
<rect x="42" y="84" width="2" height="2" fill="#44211B" />
<rect x="66" y="84" width="2" height="2" fill="#44211B" />
<rect x="68" y="84" width="2" height="2" fill="#C47238" />
<rect x="70" y="84" width="2" height="2" fill="#C47238" />
<rect x="72" y="84" width="2" height="2" fill="#44211B" />
<rect x="78" y="84" width="2" height="2" fill="#44211B" />
<rect x="80" y="84" width="2" height="2" fill="#C47238" />
<rect x="82" y="84" width="2" height="2" fill="#C47238" />
<rect x="84" y="84" width="2" height="2" fill="#44211B" />
<rect x="22" y="86" width="2" height="2" fill="#44211B" />
<rect x="24" y="86" width="2" height="2" fill="#C47238" />
<rect x="26" y="86" width="2" height="2" fill="#C47238" />
<rect x="28" y="86" width="2" height="2" fill="#C47238" />
<rect x="30" y="86" width="2" height="2" fill="#44211B" />
<rect x="36" y="86" width="2" height="2" fill="#44211B" />
<rect x="38" y="86" width="2" height="2" fill="#C47238" />
<rect x="40" y="86" width="2" height="2" fill="#C47238" />
<rect x="42" y="86" width="2" height="2" fill="#C47238" />
<rect x="44" y="86" width="2" height="2" fill="#44211B" />
<rect x="66" y="86" width="2" height="2" fill="#44211B" />
<rect x="68" y="86" width="2" height="2" fill="#C47238" />
<rect x="70" y="86" width="2" height="2" fill="#C47238" />
<rect x="72" y="86" width="2" height="2" fill="#C47238" />
<rect x="74" y="86" width="2" height="2" fill="#44211B" />
<rect x="78" y="86" width="2" height="2" fill="#44211B" />
<rect x="80" y="86" width="2" height="2" fill="#C47238" />
<rect x="82" y="86" width="2" height="2" fill="#C47238" />
<rect x="84" y="86" width="2" height="2" fill="#C47238" />
<rect x="86" y="86" width="2" height="2" fill="#44211B" />
<rect x="24" y="88" width="2" height="2" fill="#44211B" />
<rect x="26" y="88" width="2" height="2" fill="#44211B" />
<rect x="28" y="88" width="2" height="2" fill="#44211B" />
<rect x="38" y="88" width="2" height="2" fill="#44211B" />
<rect x="40" y="88" width="2" height="2" fill="#44211B" />
<rect x="42" y="88" width="2" height="2" fill="#44211B" />
<rect x="68" y="88" width="2" height="2" fill="#44211B" />
<rect x="70" y="88" width="2" height="2" fill="#44211B" />
<rect x="72" y="88" width="2" height="2" fill="#44211B" />
<rect x="80" y="88" width="2" height="2" fill="#44211B" />
<rect x="82" y="88" width="2" height="2" fill="#44211B" />
<rect x="84" y="88" width="2" height="2" fill="#44211B" />
</svg>