<svg width="94" height="94" viewBox="0 0 94 94" fill="none" xmlns="http://www.w3.org/2000/svg">
<path d="M54.3438 27.9062H52.875V29.375H54.3438V27.9062Z" fill="#44211B"/>
<path d="M55.8125 27.9062H54.3438V29.375H55.8125V27.9062Z" fill="#44211B"/>
<path d="M57.2812 27.9062H55.8125V29.375H57.2812V27.9062Z" fill="#44211B"/>
<path d="M58.75 27.9062H57.2812V29.375H58.75V27.9062Z" fill="#44211B"/>
<path d="M60.2188 27.9062H58.75V29.375H60.2188V27.9062Z" fill="#44211B"/>
<path d="M61.6875 27.9062H60.2188V29.375H61.6875V27.9062Z" fill="#44211B"/>
<path d="M63.1562 27.9062H61.6875V29.375H63.1562V27.9062Z" fill="#44211B"/>
<path d="M64.625 27.9062H63.1562V29.375H64.625V27.9062Z" fill="#44211B"/>
<path d="M66.0938 27.9062H64.625V29.375H66.0938V27.9062Z" fill="#44211B"/>
<path d="M67.5625 27.9062H66.0938V29.375H67.5625V27.9062Z" fill="#44211B"/>
<path d="M69.0312 27.9062H67.5625V29.375H69.0312V27.9062Z" fill="#44211B"/>
<path d="M52.875 29.375H51.4062V30.8438H52.875V29.375Z" fill="#44211B"/>
<path d="M54.3438 29.375H52.875V30.8438H54.3438V29.375Z" fill="#C47238"/>
<path d="M55.8125 29.375H54.3438V30.8438H55.8125V29.375Z" fill="#C47238"/>
<path d="M57.2812 29.375H55.8125V30.8438H57.2812V29.375Z" fill="#8F563B"/>
<path d="M58.75 29.375H57.2812V30.8438H58.75V29.375Z" fill="#8F563B"/>
<path d="M60.2188 29.375H58.75V30.8438H60.2188V29.375Z" fill="#8F563B"/>
<path d="M61.6875 29.375H60.2188V30.8438H61.6875V29.375Z" fill="#8F563B"/>
<path d="M63.1562 29.375H61.6875V30.8438H63.1562V29.375Z" fill="#8F563B"/>
<path d="M64.625 29.375H63.1562V30.8438H64.625V29.375Z" fill="#8F563B"/>
<path d="M66.0938 29.375H64.625V30.8438H66.0938V29.375Z" fill="#8F563B"/>
<path d="M67.5625 29.375H66.0938V30.8438H67.5625V29.375Z" fill="#8F563B"/>
<path d="M69.0312 29.375H67.5625V30.8438H69.0312V29.375Z" fill="#8F563B"/>
<path d="M70.5 29.375H69.0312V30.8438H70.5V29.375Z" fill="#44211B"/>
<path d="M51.4062 30.8438H49.9375V32.3125H51.4062V30.8438Z" fill="#44211B"/>
<path d="M52.875 30.8438H51.4062V32.3125H52.875V30.8438Z" fill="#C47238"/>
<path d="M54.3438 30.8438H52.875V32.3125H54.3438V30.8438Z" fill="#C47238"/>
<path d="M55.8125 30.8438H54.3438V32.3125H55.8125V30.8438Z" fill="#C47238"/>
<path d="M57.2812 30.8438H55.8125V32.3125H57.2812V30.8438Z" fill="#8F563B"/>
<path d="M58.75 30.8438H57.2812V32.3125H58.75V30.8438Z" fill="#8F563B"/>
<path d="M60.2188 30.8438H58.75V32.3125H60.2188V30.8438Z" fill="#8F563B"/>
<path d="M61.6875 30.8438H60.2188V32.3125H61.6875V30.8438Z" fill="#8F563B"/>
<path d="M63.1562 30.8438H61.6875V32.3125H63.1562V30.8438Z" fill="#8F563B"/>
<path d="M64.625 30.8438H63.1562V32.3125H64.625V30.8438Z" fill="#8F563B"/>
<path d="M66.0938 30.8438H64.625V32.3125H66.0938V30.8438Z" fill="#8F563B"/>
<path d="M67.5625 30.8438H66.0938V32.3125H67.5625V30.8438Z" fill="#8F563B"/>
<path d="M69.0312 30.8438H67.5625V32.3125H69.0312V30.8438Z" fill="#8F563B"/>
<path d="M70.5 30.8438H69.0312V32.3125H70.5V30.8438Z" fill="#44211B"/>
<path d="M49.9375 32.3125H48.4688V33.7812H49.9375V32.3125Z" fill="#44211B"/>
<path d="M51.4062 32.3125H49.9375V33.7812H51.4062V32.3125Z" fill="#C47238"/>
<path d="M52.875 32.3125H51.4062V33.7812H52.875V32.3125Z" fill="#C47238"/>
<path d="M54.3438 32.3125H52.875V33.7812H54.3438V32.3125Z" fill="#C47238"/>
<path d="M55.8125 32.3125H54.3438V33.7812H55.8125V32.3125Z" fill="#C47238"/>
<path d="M57.2812 32.3125H55.8125V33.7812H57.2812V32.3125Z" fill="#8F563B"/>
<path d="M58.75 32.3125H57.2812V33.7812H58.75V32.3125Z" fill="#8F563B"/>
<path d="M60.2188 32.3125H58.75V33.7812H60.2188V32.3125Z" fill="#8F563B"/>
<path d="M61.6875 32.3125H60.2188V33.7812H61.6875V32.3125Z" fill="#8F563B"/>
<path d="M63.1562 32.3125H61.6875V33.7812H63.1562V32.3125Z" fill="#8F563B"/>
<path d="M64.625 32.3125H63.1562V33.7812H64.625V32.3125Z" fill="#8F563B"/>
<path d="M66.0938 32.3125H64.625V33.7812H66.0938V32.3125Z" fill="#8F563B"/>
<path d="M67.5625 32.3125H66.0938V33.7812H67.5625V32.3125Z" fill="#8F563B"/>
<path d="M69.0312 32.3125H67.5625V33.7812H69.0312V32.3125Z" fill="#8F563B"/>
<path d="M70.5 32.3125H69.0312V33.7812H70.5V32.3125Z" fill="#8F563B"/>
<path d="M71.9688 32.3125H70.5V33.7812H71.9688V32.3125Z" fill="#44211B"/>
<path d="M49.9375 33.7812H48.4688V35.25H49.9375V33.7812Z" fill="#44211B"/>
<path d="M51.4062 33.7812H49.9375V35.25H51.4062V33.7812Z" fill="#C47238"/>
<path d="M52.875 33.7812H51.4062V35.25H52.875V33.7812Z" fill="#C47238"/>
<path d="M54.3438 33.7812H52.875V35.25H54.3438V33.7812Z" fill="#C47238"/>
<path d="M55.8125 33.7812H54.3438V35.25H55.8125V33.7812Z" fill="#C47238"/>
<path d="M57.2812 33.7812H55.8125V35.25H57.2812V33.7812Z" fill="#8F563B"/>
<path d="M58.75 33.7812H57.2812V35.25H58.75V33.7812Z" fill="#8F563B"/>
<path d="M60.2188 33.7812H58.75V35.25H60.2188V33.7812Z" fill="#8F563B"/>
<path d="M61.6875 33.7812H60.2188V35.25H61.6875V33.7812Z" fill="#8F563B"/>
<path d="M63.1562 33.7812H61.6875V35.25H63.1562V33.7812Z" fill="#8F563B"/>
<path d="M64.625 33.7812H63.1562V35.25H64.625V33.7812Z" fill="#8F563B"/>
<path d="M66.0938 33.7812H64.625V35.25H66.0938V33.7812Z" fill="#44211B"/>
<path d="M67.5625 33.7812H66.0938V35.25H67.5625V33.7812Z" fill="#8F563B"/>
<path d="M69.0312 33.7812H67.5625V35.25H69.0312V33.7812Z" fill="#8F563B"/>
<path d="M70.5 33.7812H69.0312V35.25H70.5V33.7812Z" fill="#8F563B"/>
<path d="M71.9688 33.7812H70.5V35.25H71.9688V33.7812Z" fill="#8F563B"/>
<path d="M73.4375 33.7812H71.9688V35.25H73.4375V33.7812Z" fill="#44211B"/>
<path d="M48.4688 35.25H47V36.7188H48.4688V35.25Z" fill="#44211B"/>
<path d="M49.9375 35.25H48.4688V36.7188H49.9375V35.25Z" fill="#C47238"/>
<path d="M51.4062 35.25H49.9375V36.7188H51.4062V35.25Z" fill="#C47238"/>
<path d="M52.875 35.25H51.4062V36.7188H52.875V35.25Z" fill="#C47238"/>
<path d="M54.3438 35.25H52.875V36.7188H54.3438V35.25Z" fill="#C47238"/>
<path d="M55.8125 35.25H54.3438V36.7188H55.8125V35.25Z" fill="#C47238"/>
<path d="M57.2812 35.25H55.8125V36.7188H57.2812V35.25Z" fill="#8F563B"/>
<path d="M58.75 35.25H57.2812V36.7188H58.75V35.25Z" fill="#8F563B"/>
<path d="M60.2188 35.25H58.75V36.7188H60.2188V35.25Z" fill="#8F563B"/>
<path d="M61.6875 35.25H60.2188V36.7188H61.6875V35.25Z" fill="#8F563B"/>
<path d="M63.1562 35.25H61.6875V36.7188H63.1562V35.25Z" fill="#8F563B"/>
<path d="M64.625 35.25H63.1562V36.7188H64.625V35.25Z" fill="#44211B"/>
<path d="M66.0938 35.25H64.625V36.7188H66.0938V35.25Z" fill="#44211B"/>
<path d="M67.5625 35.25H66.0938V36.7188H67.5625V35.25Z" fill="#8F563B"/>
<path d="M69.0312 35.25H67.5625V36.7188H69.0312V35.25Z" fill="#C47238"/>
<path d="M70.5 35.25H69.0312V36.7188H70.5V35.25Z" fill="#C47238"/>
<path d="M71.9688 35.25H70.5V36.7188H71.9688V35.25Z" fill="#C47238"/>
<path d="M73.4375 35.25H71.9688V36.7188H73.4375V35.25Z" fill="#C47238"/>
<path d="M74.9062 35.25H73.4375V36.7188H74.9062V35.25Z" fill="#44211B"/>
<path d="M76.375 35.25H74.9062V36.7188H76.375V35.25Z" fill="#44211B"/>
<path d="M77.8438 35.25H76.375V36.7188H77.8438V35.25Z" fill="#44211B"/>
<path d="M79.3125 35.25H77.8438V36.7188H79.3125V35.25Z" fill="#44211B"/>
<path d="M48.4688 36.7188H47V38.1875H48.4688V36.7188Z" fill="#44211B"/>
<path d="M49.9375 36.7188H48.4688V38.1875H49.9375V36.7188Z" fill="#C47238"/>
<path d="M51.4062 36.7188H49.9375V38.1875H51.4062V36.7188Z" fill="#C47238"/>
<path d="M52.875 36.7188H51.4062V38.1875H52.875V36.7188Z" fill="#C47238"/>
<path d="M54.3438 36.7188H52.875V38.1875H54.3438V36.7188Z" fill="#C47238"/>
<path d="M55.8125 36.7188H54.3438V38.1875H55.8125V36.7188Z" fill="#C47238"/>
<path d="M57.2812 36.7188H55.8125V38.1875H57.2812V36.7188Z" fill="#8F563B"/>
<path d="M58.75 36.7188H57.2812V38.1875H58.75V36.7188Z" fill="#8F563B"/>
<path d="M60.2188 36.7188H58.75V38.1875H60.2188V36.7188Z" fill="#8F563B"/>
<path d="M61.6875 36.7188H60.2188V38.1875H61.6875V36.7188Z" fill="#8F563B"/>
<path d="M63.1562 36.7188H61.6875V38.1875H63.1562V36.7188Z" fill="#8F563B"/>
<path d="M64.625 36.7188H63.1562V38.1875H64.625V36.7188Z" fill="#44211B"/>
<path d="M66.0938 36.7188H64.625V38.1875H66.0938V36.7188Z" fill="#44211B"/>
<path d="M67.5625 36.7188H66.0938V38.1875H67.5625V36.7188Z" fill="#C47238"/>
<path d="M69.0312 36.7188H67.5625V38.1875H69.0312V36.7188Z" fill="#C47238"/>
<path d="M70.5 36.7188H69.0312V38.1875H70.5V36.7188Z" fill="#C47238"/>
<path d="M71.9688 36.7188H70.5V38.1875H71.9688V36.7188Z" fill="#C47238"/>
<path d="M73.4375 36.7188H71.9688V38.1875H73.4375V36.7188Z" fill="#C47238"/>
<path d="M74.9062 36.7188H73.4375V38.1875H74.9062V36.7188Z" fill="#C47238"/>
<path d="M76.375 36.7188H74.9062V38.1875H76.375V36.7188Z" fill="#44211B"/>
<path d="M77.8438 36.7188H76.375V38.1875H77.8438V36.7188Z" fill="#44211B"/>
<path d="M79.3125 36.7188H77.8438V38.1875H79.3125V36.7188Z" fill="#44211B"/>
<path d="M80.7812 36.7188H79.3125V38.1875H80.7812V36.7188Z" fill="#44211B"/>
<path d="M48.4688 38.1875H47V39.6562H48.4688V38.1875Z" fill="#44211B"/>
<path d="M49.9375 38.1875H48.4688V39.6562H49.9375V38.1875Z" fill="#C47238"/>
<path d="M51.4062 38.1875H49.9375V39.6562H51.4062V38.1875Z" fill="#C47238"/>
<path d="M52.875 38.1875H51.4062V39.6562H52.875V38.1875Z" fill="#C47238"/>
<path d="M54.3438 38.1875H52.875V39.6562H54.3438V38.1875Z" fill="#C47238"/>
<path d="M55.8125 38.1875H54.3438V39.6562H55.8125V38.1875Z" fill="#C47238"/>
<path d="M57.2812 38.1875H55.8125V39.6562H57.2812V38.1875Z" fill="#8F563B"/>
<path d="M58.75 38.1875H57.2812V39.6562H58.75V38.1875Z" fill="#8F563B"/>
<path d="M60.2188 38.1875H58.75V39.6562H60.2188V38.1875Z" fill="#8F563B"/>
<path d="M61.6875 38.1875H60.2188V39.6562H61.6875V38.1875Z" fill="#8F563B"/>
<path d="M63.1562 38.1875H61.6875V39.6562H63.1562V38.1875Z" fill="#8F563B"/>
<path d="M64.625 38.1875H63.1562V39.6562H64.625V38.1875Z" fill="#44211B"/>
<path d="M66.0938 38.1875H64.625V39.6562H66.0938V38.1875Z" fill="#44211B"/>
<path d="M67.5625 38.1875H66.0938V39.6562H67.5625V38.1875Z" fill="#C47238"/>
<path d="M69.0312 38.1875H67.5625V39.6562H69.0312V38.1875Z" fill="#C47238"/>
<path d="M70.5 38.1875H69.0312V39.6562H70.5V38.1875Z" fill="#C47238"/>
<path d="M71.9688 38.1875H70.5V39.6562H71.9688V38.1875Z" fill="#C47238"/>
<path d="M73.4375 38.1875H71.9688V39.6562H73.4375V38.1875Z" fill="#C47238"/>
<path d="M74.9062 38.1875H73.4375V39.6562H74.9062V38.1875Z" fill="#C47238"/>
<path d="M76.375 38.1875H74.9062V39.6562H76.375V38.1875Z" fill="#C47238"/>
<path d="M77.8438 38.1875H76.375V39.6562H77.8438V38.1875Z" fill="#44211B"/>
<path d="M79.3125 38.1875H77.8438V39.6562H79.3125V38.1875Z" fill="#44211B"/>
<path d="M80.7812 38.1875H79.3125V39.6562H80.7812V38.1875Z" fill="#44211B"/>
<path d="M22.0312 39.6562H20.5625V41.125H22.0312V39.6562Z" fill="#44211B"/>
<path d="M23.5 39.6562H22.0312V41.125H23.5V39.6562Z" fill="#44211B"/>
<path d="M24.9688 39.6562H23.5V41.125H24.9688V39.6562Z" fill="#44211B"/>
<path d="M26.4375 39.6562H24.9688V41.125H26.4375V39.6562Z" fill="#44211B"/>
<path d="M27.9062 39.6562H26.4375V41.125H27.9062V39.6562Z" fill="#44211B"/>
<path d="M29.375 39.6562H27.9062V41.125H29.375V39.6562Z" fill="#44211B"/>
<path d="M30.8438 39.6562H29.375V41.125H30.8438V39.6562Z" fill="#44211B"/>
<path d="M32.3125 39.6562H30.8438V41.125H32.3125V39.6562Z" fill="#44211B"/>
<path d="M33.7812 39.6562H32.3125V41.125H33.7812V39.6562Z" fill="#44211B"/>
<path d="M35.25 39.6562H33.7812V41.125H35.25V39.6562Z" fill="#44211B"/>
<path d="M36.7188 39.6562H35.25V41.125H36.7188V39.6562Z" fill="#44211B"/>
<path d="M38.1875 39.6562H36.7188V41.125H38.1875V39.6562Z" fill="#44211B"/>
<path d="M39.6562 39.6562H38.1875V41.125H39.6562V39.6562Z" fill="#44211B"/>
<path d="M41.125 39.6562H39.6562V41.125H41.125V39.6562Z" fill="#44211B"/>
<path d="M42.5938 39.6562H41.125V41.125H42.5938V39.6562Z" fill="#44211B"/>
<path d="M44.0625 39.6562H42.5938V41.125H44.0625V39.6562Z" fill="#44211B"/>
<path d="M45.5312 39.6562H44.0625V41.125H45.5312V39.6562Z" fill="#44211B"/>
<path d="M47 39.6562H45.5312V41.125H47V39.6562Z" fill="#44211B"/>
<path d="M48.4688 39.6562H47V41.125H48.4688V39.6562Z" fill="#C47238"/>
<path d="M49.9375 39.6562H48.4688V41.125H49.9375V39.6562Z" fill="#C47238"/>
<path d="M51.4062 39.6562H49.9375V41.125H51.4062V39.6562Z" fill="#C47238"/>
<path d="M52.875 39.6562H51.4062V41.125H52.875V39.6562Z" fill="#C47238"/>
<path d="M54.3438 39.6562H52.875V41.125H54.3438V39.6562Z" fill="#C47238"/>
<path d="M55.8125 39.6562H54.3438V41.125H55.8125V39.6562Z" fill="#C47238"/>
<path d="M57.2812 39.6562H55.8125V41.125H57.2812V39.6562Z" fill="#8F563B"/>
<path d="M58.75 39.6562H57.2812V41.125H58.75V39.6562Z" fill="#8F563B"/>
<path d="M60.2188 39.6562H58.75V41.125H60.2188V39.6562Z" fill="#8F563B"/>
<path d="M61.6875 39.6562H60.2188V41.125H61.6875V39.6562Z" fill="#8F563B"/>
<path d="M63.1562 39.6562H61.6875V41.125H63.1562V39.6562Z" fill="#8F563B"/>
<path d="M64.625 39.6562H63.1562V41.125H64.625V39.6562Z" fill="#C47238"/>
<path d="M66.0938 39.6562H64.625V41.125H66.0938V39.6562Z" fill="#C47238"/>
<path d="M67.5625 39.6562H66.0938V41.125H67.5625V39.6562Z" fill="#C47238"/>
<path d="M69.0312 39.6562H67.5625V41.125H69.0312V39.6562Z" fill="#C47238"/>
<path d="M70.5 39.6562H69.0312V41.125H70.5V39.6562Z" fill="#C47238"/>
<path d="M71.9688 39.6562H70.5V41.125H71.9688V39.6562Z" fill="#C47238"/>
<path d="M73.4375 39.6562H71.9688V41.125H73.4375V39.6562Z" fill="#C47238"/>
<path d="M74.9062 39.6562H73.4375V41.125H74.9062V39.6562Z" fill="#C47238"/>
<path d="M76.375 39.6562H74.9062V41.125H76.375V39.6562Z" fill="#C47238"/>
<path d="M77.8438 39.6562H76.375V41.125H77.8438V39.6562Z" fill="#C47238"/>
<path d="M79.3125 39.6562H77.8438V41.125H79.3125V39.6562Z" fill="#C47238"/>
<path d="M80.7812 39.6562H79.3125V41.125H80.7812V39.6562Z" fill="#44211B"/>
<path d="M19.0938 41.125H17.625V42.5938H19.0938V41.125Z" fill="#44211B"/>
<path d="M20.5625 41.125H19.0938V42.5938H20.5625V41.125Z" fill="#44211B"/>
<path d="M22.0312 41.125H20.5625V42.5938H22.0312V41.125Z" fill="#8F563B"/>
<path d="M23.5 41.125H22.0312V42.5938H23.5V41.125Z" fill="#8F563B"/>
<path d="M24.9688 41.125H23.5V42.5938H24.9688V41.125Z" fill="#8F563B"/>
<path d="M26.4375 41.125H24.9688V42.5938H26.4375V41.125Z" fill="#8F563B"/>
<path d="M27.9062 41.125H26.4375V42.5938H27.9062V41.125Z" fill="#8F563B"/>
<path d="M29.375 41.125H27.9062V42.5938H29.375V41.125Z" fill="#8F563B"/>
<path d="M30.8438 41.125H29.375V42.5938H30.8438V41.125Z" fill="#8F563B"/>
<path d="M32.3125 41.125H30.8438V42.5938H32.3125V41.125Z" fill="#8F563B"/>
<path d="M33.7812 41.125H32.3125V42.5938H33.7812V41.125Z" fill="#8F563B"/>
<path d="M35.25 41.125H33.7812V42.5938H35.25V41.125Z" fill="#8F563B"/>
<path d="M36.7188 41.125H35.25V42.5938H36.7188V41.125Z" fill="#8F563B"/>
<path d="M38.1875 41.125H36.7188V42.5938H38.1875V41.125Z" fill="#8F563B"/>
<path d="M39.6562 41.125H38.1875V42.5938H39.6562V41.125Z" fill="#8F563B"/>
<path d="M41.125 41.125H39.6562V42.5938H41.125V41.125Z" fill="#8F563B"/>
<path d="M42.5938 41.125H41.125V42.5938H42.5938V41.125Z" fill="#8F563B"/>
<path d="M44.0625 41.125H42.5938V42.5938H44.0625V41.125Z" fill="#8F563B"/>
<path d="M45.5312 41.125H44.0625V42.5938H45.5312V41.125Z" fill="#8F563B"/>
<path d="M47 41.125H45.5312V42.5938H47V41.125Z" fill="#8F563B"/>
<path d="M48.4688 41.125H47V42.5938H48.4688V41.125Z" fill="#44211B"/>
<path d="M49.9375 41.125H48.4688V42.5938H49.9375V41.125Z" fill="#C47238"/>
<path d="M51.4062 41.125H49.9375V42.5938H51.4062V41.125Z" fill="#C47238"/>
<path d="M52.875 41.125H51.4062V42.5938H52.875V41.125Z" fill="#C47238"/>
<path d="M54.3438 41.125H52.875V42.5938H54.3438V41.125Z" fill="#C47238"/>
<path d="M55.8125 41.125H54.3438V42.5938H55.8125V41.125Z" fill="#C47238"/>
<path d="M57.2812 41.125H55.8125V42.5938H57.2812V41.125Z" fill="#8F563B"/>
<path d="M58.75 41.125H57.2812V42.5938H58.75V41.125Z" fill="#8F563B"/>
<path d="M60.2188 41.125H58.75V42.5938H60.2188V41.125Z" fill="#8F563B"/>
<path d="M61.6875 41.125H60.2188V42.5938H61.6875V41.125Z" fill="#8F563B"/>
<path d="M63.1562 41.125H61.6875V42.5938H63.1562V41.125Z" fill="#8F563B"/>
<path d="M64.625 41.125H63.1562V42.5938H64.625V41.125Z" fill="#C47238"/>
<path d="M66.0938 41.125H64.625V42.5938H66.0938V41.125Z" fill="#C47238"/>
<path d="M67.5625 41.125H66.0938V42.5938H67.5625V41.125Z" fill="#C47238"/>
<path d="M69.0312 41.125H67.5625V42.5938H69.0312V41.125Z" fill="#C47238"/>
<path d="M70.5 41.125H69.0312V42.5938H70.5V41.125Z" fill="#C47238"/>
<path d="M71.9688 41.125H70.5V42.5938H71.9688V41.125Z" fill="#C47238"/>
<path d="M73.4375 41.125H71.9688V42.5938H73.4375V41.125Z" fill="#C47238"/>
<path d="M74.9062 41.125H73.4375V42.5938H74.9062V41.125Z" fill="#C47238"/>
<path d="M76.375 41.125H74.9062V42.5938H76.375V41.125Z" fill="#C47238"/>
<path d="M77.8438 41.125H76.375V42.5938H77.8438V41.125Z" fill="#C47238"/>
<path d="M79.3125 41.125H77.8438V42.5938H79.3125V41.125Z" fill="#44211B"/>
<path d="M17.625 42.5938H16.1562V44.0625H17.625V42.5938Z" fill="#44211B"/>
<path d="M19.0938 42.5938H17.625V44.0625H19.0938V42.5938Z" fill="#8F563B"/>
<path d="M20.5625 42.5938H19.0938V44.0625H20.5625V42.5938Z" fill="#8F563B"/>
<path d="M22.0312 42.5938H20.5625V44.0625H22.0312V42.5938Z" fill="#8F563B"/>
<path d="M23.5 42.5938H22.0312V44.0625H23.5V42.5938Z" fill="#8F563B"/>
<path d="M24.9688 42.5938H23.5V44.0625H24.9688V42.5938Z" fill="#8F563B"/>
<path d="M26.4375 42.5938H24.9688V44.0625H26.4375V42.5938Z" fill="#8F563B"/>
<path d="M27.9062 42.5938H26.4375V44.0625H27.9062V42.5938Z" fill="#8F563B"/>
<path d="M29.375 42.5938H27.9062V44.0625H29.375V42.5938Z" fill="#8F563B"/>
<path d="M30.8438 42.5938H29.375V44.0625H30.8438V42.5938Z" fill="#8F563B"/>
<path d="M32.3125 42.5938H30.8438V44.0625H32.3125V42.5938Z" fill="#8F563B"/>
<path d="M33.7812 42.5938H32.3125V44.0625H33.7812V42.5938Z" fill="#8F563B"/>
<path d="M35.25 42.5938H33.7812V44.0625H35.25V42.5938Z" fill="#8F563B"/>
<path d="M36.7188 42.5938H35.25V44.0625H36.7188V42.5938Z" fill="#8F563B"/>
<path d="M38.1875 42.5938H36.7188V44.0625H38.1875V42.5938Z" fill="#8F563B"/>
<path d="M39.6562 42.5938H38.1875V44.0625H39.6562V42.5938Z" fill="#8F563B"/>
<path d="M41.125 42.5938H39.6562V44.0625H41.125V42.5938Z" fill="#8F563B"/>
<path d="M42.5938 42.5938H41.125V44.0625H42.5938V42.5938Z" fill="#8F563B"/>
<path d="M44.0625 42.5938H42.5938V44.0625H44.0625V42.5938Z" fill="#8F563B"/>
<path d="M45.5312 42.5938H44.0625V44.0625H45.5312V42.5938Z" fill="#8F563B"/>
<path d="M47 42.5938H45.5312V44.0625H47V42.5938Z" fill="#8F563B"/>
<path d="M48.4688 42.5938H47V44.0625H48.4688V42.5938Z" fill="#8F563B"/>
<path d="M49.9375 42.5938H48.4688V44.0625H49.9375V42.5938Z" fill="#44211B"/>
<path d="M51.4062 42.5938H49.9375V44.0625H51.4062V42.5938Z" fill="#C47238"/>
<path d="M52.875 42.5938H51.4062V44.0625H52.875V42.5938Z" fill="#C47238"/>
<path d="M54.3438 42.5938H52.875V44.0625H54.3438V42.5938Z" fill="#C47238"/>
<path d="M55.8125 42.5938H54.3438V44.0625H55.8125V42.5938Z" fill="#C47238"/>
<path d="M57.2812 42.5938H55.8125V44.0625H57.2812V42.5938Z" fill="#8F563B"/>
<path d="M58.75 42.5938H57.2812V44.0625H58.75V42.5938Z" fill="#8F563B"/>
<path d="M60.2188 42.5938H58.75V44.0625H60.2188V42.5938Z" fill="#8F563B"/>
<path d="M61.6875 42.5938H60.2188V44.0625H61.6875V42.5938Z" fill="#8F563B"/>
<path d="M63.1562 42.5938H61.6875V44.0625H63.1562V42.5938Z" fill="#8F563B"/>
<path d="M64.625 42.5938H63.1562V44.0625H64.625V42.5938Z" fill="#C47238"/>
<path d="M66.0938 42.5938H64.625V44.0625H66.0938V42.5938Z" fill="#C47238"/>
<path d="M67.5625 42.5938H66.0938V44.0625H67.5625V42.5938Z" fill="#C47238"/>
<path d="M69.0312 42.5938H67.5625V44.0625H69.0312V42.5938Z" fill="#C47238"/>
<path d="M70.5 42.5938H69.0312V44.0625H70.5V42.5938Z" fill="#C47238"/>
<path d="M71.9688 42.5938H70.5V44.0625H71.9688V42.5938Z" fill="#C47238"/>
<path d="M73.4375 42.5938H71.9688V44.0625H73.4375V42.5938Z" fill="#C47238"/>
<path d="M74.9062 42.5938H73.4375V44.0625H74.9062V42.5938Z" fill="#C47238"/>
<path d="M76.375 42.5938H74.9062V44.0625H76.375V42.5938Z" fill="#C47238"/>
<path d="M77.8438 42.5938H76.375V44.0625H77.8438V42.5938Z" fill="#44211B"/>
<path d="M16.1562 44.0625H14.6875V45.5312H16.1562V44.0625Z" fill="#44211B"/>
<path d="M17.625 44.0625H16.1562V45.5312H17.625V44.0625Z" fill="#8F563B"/>
<path d="M19.0938 44.0625H17.625V45.5312H19.0938V44.0625Z" fill="#8F563B"/>
<path d="M20.5625 44.0625H19.0938V45.5312H20.5625V44.0625Z" fill="#8F563B"/>
<path d="M22.0312 44.0625H20.5625V45.5312H22.0312V44.0625Z" fill="#8F563B"/>
<path d="M23.5 44.0625H22.0312V45.5312H23.5V44.0625Z" fill="#8F563B"/>
<path d="M24.9688 44.0625H23.5V45.5312H24.9688V44.0625Z" fill="#8F563B"/>
<path d="M26.4375 44.0625H24.9688V45.5312H26.4375V44.0625Z" fill="#8F563B"/>
<path d="M27.9062 44.0625H26.4375V45.5312H27.9062V44.0625Z" fill="#8F563B"/>
<path d="M29.375 44.0625H27.9062V45.5312H29.375V44.0625Z" fill="#8F563B"/>
<path d="M30.8438 44.0625H29.375V45.5312H30.8438V44.0625Z" fill="#8F563B"/>
<path d="M32.3125 44.0625H30.8438V45.5312H32.3125V44.0625Z" fill="#8F563B"/>
<path d="M33.7812 44.0625H32.3125V45.5312H33.7812V44.0625Z" fill="#8F563B"/>
<path d="M35.25 44.0625H33.7812V45.5312H35.25V44.0625Z" fill="#8F563B"/>
<path d="M36.7188 44.0625H35.25V45.5312H36.7188V44.0625Z" fill="#8F563B"/>
<path d="M38.1875 44.0625H36.7188V45.5312H38.1875V44.0625Z" fill="#8F563B"/>
<path d="M39.6562 44.0625H38.1875V45.5312H39.6562V44.0625Z" fill="#8F563B"/>
<path d="M41.125 44.0625H39.6562V45.5312H41.125V44.0625Z" fill="#8F563B"/>
<path d="M42.5938 44.0625H41.125V45.5312H42.5938V44.0625Z" fill="#8F563B"/>
<path d="M44.0625 44.0625H42.5938V45.5312H44.0625V44.0625Z" fill="#8F563B"/>
<path d="M45.5312 44.0625H44.0625V45.5312H45.5312V44.0625Z" fill="#8F563B"/>
<path d="M47 44.0625H45.5312V45.5312H47V44.0625Z" fill="#8F563B"/>
<path d="M48.4688 44.0625H47V45.5312H48.4688V44.0625Z" fill="#8F563B"/>
<path d="M49.9375 44.0625H48.4688V45.5312H49.9375V44.0625Z" fill="#8F563B"/>
<path d="M51.4062 44.0625H49.9375V45.5312H51.4062V44.0625Z" fill="#44211B"/>
<path d="M52.875 44.0625H51.4062V45.5312H52.875V44.0625Z" fill="#C47238"/>
<path d="M54.3438 44.0625H52.875V45.5312H54.3438V44.0625Z" fill="#C47238"/>
<path d="M55.8125 44.0625H54.3438V45.5312H55.8125V44.0625Z" fill="#44211B"/>
<path d="M57.2812 44.0625H55.8125V45.5312H57.2812V44.0625Z" fill="#8F563B"/>
<path d="M58.75 44.0625H57.2812V45.5312H58.75V44.0625Z" fill="#8F563B"/>
<path d="M60.2188 44.0625H58.75V45.5312H60.2188V44.0625Z" fill="#8F563B"/>
<path d="M61.6875 44.0625H60.2188V45.5312H61.6875V44.0625Z" fill="#8F563B"/>
<path d="M63.1562 44.0625H61.6875V45.5312H63.1562V44.0625Z" fill="#8F563B"/>
<path d="M64.625 44.0625H63.1562V45.5312H64.625V44.0625Z" fill="#8F563B"/>
<path d="M66.0938 44.0625H64.625V45.5312H66.0938V44.0625Z" fill="#C47238"/>
<path d="M67.5625 44.0625H66.0938V45.5312H67.5625V44.0625Z" fill="#C47238"/>
<path d="M69.0312 44.0625H67.5625V45.5312H69.0312V44.0625Z" fill="#C47238"/>
<path d="M70.5 44.0625H69.0312V45.5312H70.5V44.0625Z" fill="#C47238"/>
<path d="M71.9688 44.0625H70.5V45.5312H71.9688V44.0625Z" fill="#C47238"/>
<path d="M73.4375 44.0625H71.9688V45.5312H73.4375V44.0625Z" fill="#C47238"/>
<path d="M74.9062 44.0625H73.4375V45.5312H74.9062V44.0625Z" fill="#C47238"/>
<path d="M76.375 44.0625H74.9062V45.5312H76.375V44.0625Z" fill="#44211B"/>
<path d="M13.2188 45.5312H11.75V47H13.2188V45.5312Z" fill="#44211B"/>
<path d="M14.6875 45.5312H13.2188V47H14.6875V45.5312Z" fill="#44211B"/>
<path d="M16.1562 45.5312H14.6875V47H16.1562V45.5312Z" fill="#8F563B"/>
<path d="M17.625 45.5312H16.1562V47H17.625V45.5312Z" fill="#8F563B"/>
<path d="M19.0938 45.5312H17.625V47H19.0938V45.5312Z" fill="#8F563B"/>
<path d="M20.5625 45.5312H19.0938V47H20.5625V45.5312Z" fill="#8F563B"/>
<path d="M22.0312 45.5312H20.5625V47H22.0312V45.5312Z" fill="#8F563B"/>
<path d="M23.5 45.5312H22.0312V47H23.5V45.5312Z" fill="#8F563B"/>
<path d="M24.9688 45.5312H23.5V47H24.9688V45.5312Z" fill="#8F563B"/>
<path d="M26.4375 45.5312H24.9688V47H26.4375V45.5312Z" fill="#8F563B"/>
<path d="M27.9062 45.5312H26.4375V47H27.9062V45.5312Z" fill="#8F563B"/>
<path d="M29.375 45.5312H27.9062V47H29.375V45.5312Z" fill="#8F563B"/>
<path d="M30.8438 45.5312H29.375V47H30.8438V45.5312Z" fill="#8F563B"/>
<path d="M32.3125 45.5312H30.8438V47H32.3125V45.5312Z" fill="#8F563B"/>
<path d="M33.7812 45.5312H32.3125V47H33.7812V45.5312Z" fill="#8F563B"/>
<path d="M35.25 45.5312H33.7812V47H35.25V45.5312Z" fill="#8F563B"/>
<path d="M36.7188 45.5312H35.25V47H36.7188V45.5312Z" fill="#8F563B"/>
<path d="M38.1875 45.5312H36.7188V47H38.1875V45.5312Z" fill="#8F563B"/>
<path d="M39.6562 45.5312H38.1875V47H39.6562V45.5312Z" fill="#8F563B"/>
<path d="M41.125 45.5312H39.6562V47H41.125V45.5312Z" fill="#8F563B"/>
<path d="M42.5938 45.5312H41.125V47H42.5938V45.5312Z" fill="#8F563B"/>
<path d="M44.0625 45.5312H42.5938V47H44.0625V45.5312Z" fill="#8F563B"/>
<path d="M45.5312 45.5312H44.0625V47H45.5312V45.5312Z" fill="#8F563B"/>
<path d="M47 45.5312H45.5312V47H47V45.5312Z" fill="#8F563B"/>
<path d="M48.4688 45.5312H47V47H48.4688V45.5312Z" fill="#8F563B"/>
<path d="M49.9375 45.5312H48.4688V47H49.9375V45.5312Z" fill="#8F563B"/>
<path d="M51.4062 45.5312H49.9375V47H51.4062V45.5312Z" fill="#8F563B"/>
<path d="M52.875 45.5312H51.4062V47H52.875V45.5312Z" fill="#44211B"/>
<path d="M54.3438 45.5312H52.875V47H54.3438V45.5312Z" fill="#44211B"/>
<path d="M55.8125 45.5312H54.3438V47H55.8125V45.5312Z" fill="#8F563B"/>
<path d="M57.2812 45.5312H55.8125V47H57.2812V45.5312Z" fill="#8F563B"/>
<path d="M58.75 45.5312H57.2812V47H58.75V45.5312Z" fill="#8F563B"/>
<path d="M60.2188 45.5312H58.75V47H60.2188V45.5312Z" fill="#8F563B"/>
<path d="M61.6875 45.5312H60.2188V47H61.6875V45.5312Z" fill="#8F563B"/>
<path d="M63.1562 45.5312H61.6875V47H63.1562V45.5312Z" fill="#8F563B"/>
<path d="M64.625 45.5312H63.1562V47H64.625V45.5312Z" fill="#8F563B"/>
<path d="M66.0938 45.5312H64.625V47H66.0938V45.5312Z" fill="#8F563B"/>
<path d="M67.5625 45.5312H66.0938V47H67.5625V45.5312Z" fill="#8F563B"/>
<path d="M69.0312 45.5312H67.5625V47H69.0312V45.5312Z" fill="#C47238"/>
<path d="M70.5 45.5312H69.0312V47H70.5V45.5312Z" fill="#C47238"/>
<path d="M71.9688 45.5312H70.5V47H71.9688V45.5312Z" fill="#C47238"/>
<path d="M73.4375 45.5312H71.9688V47H73.4375V45.5312Z" fill="#44211B"/>
<path d="M74.9062 45.5312H73.4375V47H74.9062V45.5312Z" fill="#44211B"/>
<path d="M11.75 47H10.2812V48.4688H11.75V47Z" fill="#44211B"/>
<path d="M13.2188 47H11.75V48.4688H13.2188V47Z" fill="#8F563B"/>
<path d="M14.6875 47H13.2188V48.4688H14.6875V47Z" fill="#8F563B"/>
<path d="M16.1562 47H14.6875V48.4688H16.1562V47Z" fill="#8F563B"/>
<path d="M17.625 47H16.1562V48.4688H17.625V47Z" fill="#8F563B"/>
<path d="M19.0938 47H17.625V48.4688H19.0938V47Z" fill="#8F563B"/>
<path d="M20.5625 47H19.0938V48.4688H20.5625V47Z" fill="#8F563B"/>
<path d="M22.0312 47H20.5625V48.4688H22.0312V47Z" fill="#8F563B"/>
<path d="M23.5 47H22.0312V48.4688H23.5V47Z" fill="#8F563B"/>
<path d="M24.9688 47H23.5V48.4688H24.9688V47Z" fill="#8F563B"/>
<path d="M26.4375 47H24.9688V48.4688H26.4375V47Z" fill="#8F563B"/>
<path d="M27.9062 47H26.4375V48.4688H27.9062V47Z" fill="#8F563B"/>
<path d="M29.375 47H27.9062V48.4688H29.375V47Z" fill="#8F563B"/>
<path d="M30.8438 47H29.375V48.4688H30.8438V47Z" fill="#8F563B"/>
<path d="M32.3125 47H30.8438V48.4688H32.3125V47Z" fill="#8F563B"/>
<path d="M33.7812 47H32.3125V48.4688H33.7812V47Z" fill="#8F563B"/>
<path d="M35.25 47H33.7812V48.4688H35.25V47Z" fill="#8F563B"/>
<path d="M36.7188 47H35.25V48.4688H36.7188V47Z" fill="#8F563B"/>
<path d="M38.1875 47H36.7188V48.4688H38.1875V47Z" fill="#8F563B"/>
<path d="M39.6562 47H38.1875V48.4688H39.6562V47Z" fill="#8F563B"/>
<path d="M41.125 47H39.6562V48.4688H41.125V47Z" fill="#8F563B"/>
<path d="M42.5938 47H41.125V48.4688H42.5938V47Z" fill="#8F563B"/>
<path d="M44.0625 47H42.5938V48.4688H44.0625V47Z" fill="#8F563B"/>
<path d="M45.5312 47H44.0625V48.4688H45.5312V47Z" fill="#8F563B"/>
<path d="M47 47H45.5312V48.4688H47V47Z" fill="#8F563B"/>
<path d="M48.4688 47H47V48.4688H48.4688V47Z" fill="#8F563B"/>
<path d="M49.9375 47H48.4688V48.4688H49.9375V47Z" fill="#8F563B"/>
<path d="M51.4062 47H49.9375V48.4688H51.4062V47Z" fill="#8F563B"/>
<path d="M52.875 47H51.4062V48.4688H52.875V47Z" fill="#8F563B"/>
<path d="M54.3438 47H52.875V48.4688H54.3438V47Z" fill="#8F563B"/>
<path d="M55.8125 47H54.3438V48.4688H55.8125V47Z" fill="#8F563B"/>
<path d="M57.2812 47H55.8125V48.4688H57.2812V47Z" fill="#8F563B"/>
<path d="M58.75 47H57.2812V48.4688H58.75V47Z" fill="#8F563B"/>
<path d="M60.2188 47H58.75V48.4688H60.2188V47Z" fill="#8F563B"/>
<path d="M61.6875 47H60.2188V48.4688H61.6875V47Z" fill="#8F563B"/>
<path d="M63.1562 47H61.6875V48.4688H63.1562V47Z" fill="#8F563B"/>
<path d="M64.625 47H63.1562V48.4688H64.625V47Z" fill="#8F563B"/>
<path d="M66.0938 47H64.625V48.4688H66.0938V47Z" fill="#8F563B"/>
<path d="M67.5625 47H66.0938V48.4688H67.5625V47Z" fill="#8F563B"/>
<path d="M69.0312 47H67.5625V48.4688H69.0312V47Z" fill="#44211B"/>
<path d="M70.5 47H69.0312V48.4688H70.5V47Z" fill="#44211B"/>
<path d="M71.9688 47H70.5V48.4688H71.9688V47Z" fill="#44211B"/>
<path d="M10.2812 48.4688H8.8125V49.9375H10.2812V48.4688Z" fill="#44211B"/>
<path d="M11.75 48.4688H10.2812V49.9375H11.75V48.4688Z" fill="#8F563B"/>
<path d="M13.2188 48.4688H11.75V49.9375H13.2188V48.4688Z" fill="#8F563B"/>
<path d="M14.6875 48.4688H13.2188V49.9375H14.6875V48.4688Z" fill="#8F563B"/>
<path d="M16.1562 48.4688H14.6875V49.9375H16.1562V48.4688Z" fill="#8F563B"/>
<path d="M17.625 48.4688H16.1562V49.9375H17.625V48.4688Z" fill="#8F563B"/>
<path d="M19.0938 48.4688H17.625V49.9375H19.0938V48.4688Z" fill="#8F563B"/>
<path d="M20.5625 48.4688H19.0938V49.9375H20.5625V48.4688Z" fill="#8F563B"/>
<path d="M22.0312 48.4688H20.5625V49.9375H22.0312V48.4688Z" fill="#8F563B"/>
<path d="M23.5 48.4688H22.0312V49.9375H23.5V48.4688Z" fill="#8F563B"/>
<path d="M24.9688 48.4688H23.5V49.9375H24.9688V48.4688Z" fill="#8F563B"/>
<path d="M26.4375 48.4688H24.9688V49.9375H26.4375V48.4688Z" fill="#8F563B"/>
<path d="M27.9062 48.4688H26.4375V49.9375H27.9062V48.4688Z" fill="#8F563B"/>
<path d="M29.375 48.4688H27.9062V49.9375H29.375V48.4688Z" fill="#8F563B"/>
<path d="M30.8438 48.4688H29.375V49.9375H30.8438V48.4688Z" fill="#8F563B"/>
<path d="M32.3125 48.4688H30.8438V49.9375H32.3125V48.4688Z" fill="#8F563B"/>
<path d="M33.7812 48.4688H32.3125V49.9375H33.7812V48.4688Z" fill="#8F563B"/>
<path d="M35.25 48.4688H33.7812V49.9375H35.25V48.4688Z" fill="#8F563B"/>
<path d="M36.7188 48.4688H35.25V49.9375H36.7188V48.4688Z" fill="#8F563B"/>
<path d="M38.1875 48.4688H36.7188V49.9375H38.1875V48.4688Z" fill="#8F563B"/>
<path d="M39.6562 48.4688H38.1875V49.9375H39.6562V48.4688Z" fill="#8F563B"/>
<path d="M41.125 48.4688H39.6562V49.9375H41.125V48.4688Z" fill="#8F563B"/>
<path d="M42.5938 48.4688H41.125V49.9375H42.5938V48.4688Z" fill="#8F563B"/>
<path d="M44.0625 48.4688H42.5938V49.9375H44.0625V48.4688Z" fill="#8F563B"/>
<path d="M45.5312 48.4688H44.0625V49.9375H45.5312V48.4688Z" fill="#8F563B"/>
<path d="M47 48.4688H45.5312V49.9375H47V48.4688Z" fill="#8F563B"/>
<path d="M48.4688 48.4688H47V49.9375H48.4688V48.4688Z" fill="#8F563B"/>
<path d="M49.9375 48.4688H48.4688V49.9375H49.9375V48.4688Z" fill="#8F563B"/>
<path d="M51.4062 48.4688H49.9375V49.9375H51.4062V48.4688Z" fill="#8F563B"/>
<path d="M52.875 48.4688H51.4062V49.9375H52.875V48.4688Z" fill="#8F563B"/>
<path d="M54.3438 48.4688H52.875V49.9375H54.3438V48.4688Z" fill="#8F563B"/>
<path d="M55.8125 48.4688H54.3438V49.9375H55.8125V48.4688Z" fill="#8F563B"/>
<path d="M57.2812 48.4688H55.8125V49.9375H57.2812V48.4688Z" fill="#8F563B"/>
<path d="M58.75 48.4688H57.2812V49.9375H58.75V48.4688Z" fill="#8F563B"/>
<path d="M60.2188 48.4688H58.75V49.9375H60.2188V48.4688Z" fill="#8F563B"/>
<path d="M61.6875 48.4688H60.2188V49.9375H61.6875V48.4688Z" fill="#8F563B"/>
<path d="M63.1562 48.4688H61.6875V49.9375H63.1562V48.4688Z" fill="#8F563B"/>
<path d="M64.625 48.4688H63.1562V49.9375H64.625V48.4688Z" fill="#8F563B"/>
<path d="M66.0938 48.4688H64.625V49.9375H66.0938V48.4688Z" fill="#8F563B"/>
<path d="M67.5625 48.4688H66.0938V49.9375H67.5625V48.4688Z" fill="#8F563B"/>
<path d="M69.0312 48.4688H67.5625V49.9375H69.0312V48.4688Z" fill="#44211B"/>
<path d="M10.2812 49.9375H8.8125V51.4062H10.2812V49.9375Z" fill="#44211B"/>
<path d="M11.75 49.9375H10.2812V51.4062H11.75V49.9375Z" fill="#8F563B"/>
<path d="M13.2188 49.9375H11.75V51.4062H13.2188V49.9375Z" fill="#8F563B"/>
<path d="M14.6875 49.9375H13.2188V51.4062H14.6875V49.9375Z" fill="#44211B"/>
<path d="M16.1562 49.9375H14.6875V51.4062H16.1562V49.9375Z" fill="#44211B"/>
<path d="M17.625 49.9375H16.1562V51.4062H17.625V49.9375Z" fill="#8F563B"/>
<path d="M19.0938 49.9375H17.625V51.4062H19.0938V49.9375Z" fill="#8F563B"/>
<path d="M20.5625 49.9375H19.0938V51.4062H20.5625V49.9375Z" fill="#8F563B"/>
<path d="M22.0312 49.9375H20.5625V51.4062H22.0312V49.9375Z" fill="#8F563B"/>
<path d="M23.5 49.9375H22.0312V51.4062H23.5V49.9375Z" fill="#8F563B"/>
<path d="M24.9688 49.9375H23.5V51.4062H24.9688V49.9375Z" fill="#8F563B"/>
<path d="M26.4375 49.9375H24.9688V51.4062H26.4375V49.9375Z" fill="#8F563B"/>
<path d="M27.9062 49.9375H26.4375V51.4062H27.9062V49.9375Z" fill="#8F563B"/>
<path d="M29.375 49.9375H27.9062V51.4062H29.375V49.9375Z" fill="#8F563B"/>
<path d="M30.8438 49.9375H29.375V51.4062H30.8438V49.9375Z" fill="#8F563B"/>
<path d="M32.3125 49.9375H30.8438V51.4062H32.3125V49.9375Z" fill="#8F563B"/>
<path d="M33.7812 49.9375H32.3125V51.4062H33.7812V49.9375Z" fill="#8F563B"/>
<path d="M35.25 49.9375H33.7812V51.4062H35.25V49.9375Z" fill="#8F563B"/>
<path d="M36.7188 49.9375H35.25V51.4062H36.7188V49.9375Z" fill="#8F563B"/>
<path d="M38.1875 49.9375H36.7188V51.4062H38.1875V49.9375Z" fill="#8F563B"/>
<path d="M39.6562 49.9375H38.1875V51.4062H39.6562V49.9375Z" fill="#8F563B"/>
<path d="M41.125 49.9375H39.6562V51.4062H41.125V49.9375Z" fill="#8F563B"/>
<path d="M42.5938 49.9375H41.125V51.4062H42.5938V49.9375Z" fill="#8F563B"/>
<path d="M44.0625 49.9375H42.5938V51.4062H44.0625V49.9375Z" fill="#8F563B"/>
<path d="M45.5312 49.9375H44.0625V51.4062H45.5312V49.9375Z" fill="#8F563B"/>
<path d="M47 49.9375H45.5312V51.4062H47V49.9375Z" fill="#8F563B"/>
<path d="M48.4688 49.9375H47V51.4062H48.4688V49.9375Z" fill="#8F563B"/>
<path d="M49.9375 49.9375H48.4688V51.4062H49.9375V49.9375Z" fill="#8F563B"/>
<path d="M51.4062 49.9375H49.9375V51.4062H51.4062V49.9375Z" fill="#8F563B"/>
<path d="M52.875 49.9375H51.4062V51.4062H52.875V49.9375Z" fill="#8F563B"/>
<path d="M54.3438 49.9375H52.875V51.4062H54.3438V49.9375Z" fill="#8F563B"/>
<path d="M55.8125 49.9375H54.3438V51.4062H55.8125V49.9375Z" fill="#8F563B"/>
<path d="M57.2812 49.9375H55.8125V51.4062H57.2812V49.9375Z" fill="#8F563B"/>
<path d="M58.75 49.9375H57.2812V51.4062H58.75V49.9375Z" fill="#8F563B"/>
<path d="M60.2188 49.9375H58.75V51.4062H60.2188V49.9375Z" fill="#8F563B"/>
<path d="M61.6875 49.9375H60.2188V51.4062H61.6875V49.9375Z" fill="#8F563B"/>
<path d="M63.1562 49.9375H61.6875V51.4062H63.1562V49.9375Z" fill="#8F563B"/>
<path d="M64.625 49.9375H63.1562V51.4062H64.625V49.9375Z" fill="#8F563B"/>
<path d="M66.0938 49.9375H64.625V51.4062H66.0938V49.9375Z" fill="#8F563B"/>
<path d="M67.5625 49.9375H66.0938V51.4062H67.5625V49.9375Z" fill="#8F563B"/>
<path d="M69.0312 49.9375H67.5625V51.4062H69.0312V49.9375Z" fill="#44211B"/>
<path d="M8.8125 51.4062H7.34375V52.875H8.8125V51.4062Z" fill="#44211B"/>
<path d="M10.2812 51.4062H8.8125V52.875H10.2812V51.4062Z" fill="#8F563B"/>
<path d="M11.75 51.4062H10.2812V52.875H11.75V51.4062Z" fill="#8F563B"/>
<path d="M13.2188 51.4062H11.75V52.875H13.2188V51.4062Z" fill="#44211B"/>
<path d="M14.6875 51.4062H13.2188V52.875H14.6875V51.4062Z" fill="#44211B"/>
<path d="M17.625 51.4062H16.1562V52.875H17.625V51.4062Z" fill="#44211B"/>
<path d="M19.0938 51.4062H17.625V52.875H19.0938V51.4062Z" fill="#8F563B"/>
<path d="M20.5625 51.4062H19.0938V52.875H20.5625V51.4062Z" fill="#8F563B"/>
<path d="M22.0312 51.4062H20.5625V52.875H22.0312V51.4062Z" fill="#8F563B"/>
<path d="M23.5 51.4062H22.0312V52.875H23.5V51.4062Z" fill="#8F563B"/>
<path d="M24.9688 51.4062H23.5V52.875H24.9688V51.4062Z" fill="#8F563B"/>
<path d="M26.4375 51.4062H24.9688V52.875H26.4375V51.4062Z" fill="#8F563B"/>
<path d="M27.9062 51.4062H26.4375V52.875H27.9062V51.4062Z" fill="#8F563B"/>
<path d="M29.375 51.4062H27.9062V52.875H29.375V51.4062Z" fill="#8F563B"/>
<path d="M30.8438 51.4062H29.375V52.875H30.8438V51.4062Z" fill="#8F563B"/>
<path d="M32.3125 51.4062H30.8438V52.875H32.3125V51.4062Z" fill="#8F563B"/>
<path d="M33.7812 51.4062H32.3125V52.875H33.7812V51.4062Z" fill="#8F563B"/>
<path d="M35.25 51.4062H33.7812V52.875H35.25V51.4062Z" fill="#8F563B"/>
<path d="M36.7188 51.4062H35.25V52.875H36.7188V51.4062Z" fill="#8F563B"/>
<path d="M38.1875 51.4062H36.7188V52.875H38.1875V51.4062Z" fill="#8F563B"/>
<path d="M39.6562 51.4062H38.1875V52.875H39.6562V51.4062Z" fill="#8F563B"/>
<path d="M41.125 51.4062H39.6562V52.875H41.125V51.4062Z" fill="#8F563B"/>
<path d="M42.5938 51.4062H41.125V52.875H42.5938V51.4062Z" fill="#8F563B"/>
<path d="M44.0625 51.4062H42.5938V52.875H44.0625V51.4062Z" fill="#8F563B"/>
<path d="M45.5312 51.4062H44.0625V52.875H45.5312V51.4062Z" fill="#8F563B"/>
<path d="M47 51.4062H45.5312V52.875H47V51.4062Z" fill="#8F563B"/>
<path d="M48.4688 51.4062H47V52.875H48.4688V51.4062Z" fill="#8F563B"/>
<path d="M49.9375 51.4062H48.4688V52.875H49.9375V51.4062Z" fill="#8F563B"/>
<path d="M51.4062 51.4062H49.9375V52.875H51.4062V51.4062Z" fill="#8F563B"/>
<path d="M52.875 51.4062H51.4062V52.875H52.875V51.4062Z" fill="#8F563B"/>
<path d="M54.3438 51.4062H52.875V52.875H54.3438V51.4062Z" fill="#8F563B"/>
<path d="M55.8125 51.4062H54.3438V52.875H55.8125V51.4062Z" fill="#8F563B"/>
<path d="M57.2812 51.4062H55.8125V52.875H57.2812V51.4062Z" fill="#8F563B"/>
<path d="M58.75 51.4062H57.2812V52.875H58.75V51.4062Z" fill="#8F563B"/>
<path d="M60.2188 51.4062H58.75V52.875H60.2188V51.4062Z" fill="#8F563B"/>
<path d="M61.6875 51.4062H60.2188V52.875H61.6875V51.4062Z" fill="#8F563B"/>
<path d="M63.1562 51.4062H61.6875V52.875H63.1562V51.4062Z" fill="#8F563B"/>
<path d="M64.625 51.4062H63.1562V52.875H64.625V51.4062Z" fill="#8F563B"/>
<path d="M66.0938 51.4062H64.625V52.875H66.0938V51.4062Z" fill="#8F563B"/>
<path d="M67.5625 51.4062H66.0938V52.875H67.5625V51.4062Z" fill="#8F563B"/>
<path d="M69.0312 51.4062H67.5625V52.875H69.0312V51.4062Z" fill="#44211B"/>
<path d="M8.8125 52.875H7.34375V54.3438H8.8125V52.875Z" fill="#44211B"/>
<path d="M10.2812 52.875H8.8125V54.3438H10.2812V52.875Z" fill="#8F563B"/>
<path d="M11.75 52.875H10.2812V54.3438H11.75V52.875Z" fill="#44211B"/>
<path d="M13.2188 52.875H11.75V54.3438H13.2188V52.875Z" fill="#44211B"/>
<path d="M17.625 52.875H16.1562V54.3438H17.625V52.875Z" fill="#44211B"/>
<path d="M19.0938 52.875H17.625V54.3438H19.0938V52.875Z" fill="#8F563B"/>
<path d="M20.5625 52.875H19.0938V54.3438H20.5625V52.875Z" fill="#8F563B"/>
<path d="M22.0312 52.875H20.5625V54.3438H22.0312V52.875Z" fill="#8F563B"/>
<path d="M23.5 52.875H22.0312V54.3438H23.5V52.875Z" fill="#8F563B"/>
<path d="M24.9688 52.875H23.5V54.3438H24.9688V52.875Z" fill="#8F563B"/>
<path d="M26.4375 52.875H24.9688V54.3438H26.4375V52.875Z" fill="#8F563B"/>
<path d="M27.9062 52.875H26.4375V54.3438H27.9062V52.875Z" fill="#8F563B"/>
<path d="M29.375 52.875H27.9062V54.3438H29.375V52.875Z" fill="#8F563B"/>
<path d="M30.8438 52.875H29.375V54.3438H30.8438V52.875Z" fill="#8F563B"/>
<path d="M32.3125 52.875H30.8438V54.3438H32.3125V52.875Z" fill="#8F563B"/>
<path d="M33.7812 52.875H32.3125V54.3438H33.7812V52.875Z" fill="#8F563B"/>
<path d="M35.25 52.875H33.7812V54.3438H35.25V52.875Z" fill="#8F563B"/>
<path d="M36.7188 52.875H35.25V54.3438H36.7188V52.875Z" fill="#8F563B"/>
<path d="M38.1875 52.875H36.7188V54.3438H38.1875V52.875Z" fill="#8F563B"/>
<path d="M39.6562 52.875H38.1875V54.3438H39.6562V52.875Z" fill="#8F563B"/>
<path d="M41.125 52.875H39.6562V54.3438H41.125V52.875Z" fill="#8F563B"/>
<path d="M42.5938 52.875H41.125V54.3438H42.5938V52.875Z" fill="#8F563B"/>
<path d="M44.0625 52.875H42.5938V54.3438H44.0625V52.875Z" fill="#8F563B"/>
<path d="M45.5312 52.875H44.0625V54.3438H45.5312V52.875Z" fill="#8F563B"/>
<path d="M47 52.875H45.5312V54.3438H47V52.875Z" fill="#8F563B"/>
<path d="M48.4688 52.875H47V54.3438H48.4688V52.875Z" fill="#8F563B"/>
<path d="M49.9375 52.875H48.4688V54.3438H49.9375V52.875Z" fill="#8F563B"/>
<path d="M51.4062 52.875H49.9375V54.3438H51.4062V52.875Z" fill="#8F563B"/>
<path d="M52.875 52.875H51.4062V54.3438H52.875V52.875Z" fill="#8F563B"/>
<path d="M54.3438 52.875H52.875V54.3438H54.3438V52.875Z" fill="#8F563B"/>
<path d="M55.8125 52.875H54.3438V54.3438H55.8125V52.875Z" fill="#8F563B"/>
<path d="M57.2812 52.875H55.8125V54.3438H57.2812V52.875Z" fill="#8F563B"/>
<path d="M58.75 52.875H57.2812V54.3438H58.75V52.875Z" fill="#8F563B"/>
<path d="M60.2188 52.875H58.75V54.3438H60.2188V52.875Z" fill="#8F563B"/>
<path d="M61.6875 52.875H60.2188V54.3438H61.6875V52.875Z" fill="#44211B"/>
<path d="M63.1562 52.875H61.6875V54.3438H63.1562V52.875Z" fill="#8F563B"/>
<path d="M64.625 52.875H63.1562V54.3438H64.625V52.875Z" fill="#8F563B"/>
<path d="M66.0938 52.875H64.625V54.3438H66.0938V52.875Z" fill="#8F563B"/>
<path d="M67.5625 52.875H66.0938V54.3438H67.5625V52.875Z" fill="#44211B"/>
<path d="M8.8125 54.3438H7.34375V55.8125H8.8125V54.3438Z" fill="#44211B"/>
<path d="M10.2812 54.3438H8.8125V55.8125H10.2812V54.3438Z" fill="#44211B"/>
<path d="M17.625 54.3438H16.1562V55.8125H17.625V54.3438Z" fill="#44211B"/>
<path d="M19.0938 54.3438H17.625V55.8125H19.0938V54.3438Z" fill="#8F563B"/>
<path d="M20.5625 54.3438H19.0938V55.8125H20.5625V54.3438Z" fill="#8F563B"/>
<path d="M22.0312 54.3438H20.5625V55.8125H22.0312V54.3438Z" fill="#8F563B"/>
<path d="M23.5 54.3438H22.0312V55.8125H23.5V54.3438Z" fill="#8F563B"/>
<path d="M24.9688 54.3438H23.5V55.8125H24.9688V54.3438Z" fill="#8F563B"/>
<path d="M26.4375 54.3438H24.9688V55.8125H26.4375V54.3438Z" fill="#8F563B"/>
<path d="M27.9062 54.3438H26.4375V55.8125H27.9062V54.3438Z" fill="#8F563B"/>
<path d="M29.375 54.3438H27.9062V55.8125H29.375V54.3438Z" fill="#8F563B"/>
<path d="M30.8438 54.3438H29.375V55.8125H30.8438V54.3438Z" fill="#8F563B"/>
<path d="M32.3125 54.3438H30.8438V55.8125H32.3125V54.3438Z" fill="#8F563B"/>
<path d="M33.7812 54.3438H32.3125V55.8125H33.7812V54.3438Z" fill="#8F563B"/>
<path d="M35.25 54.3438H33.7812V55.8125H35.25V54.3438Z" fill="#8F563B"/>
<path d="M36.7188 54.3438H35.25V55.8125H36.7188V54.3438Z" fill="#8F563B"/>
<path d="M38.1875 54.3438H36.7188V55.8125H38.1875V54.3438Z" fill="#8F563B"/>
<path d="M39.6562 54.3438H38.1875V55.8125H39.6562V54.3438Z" fill="#8F563B"/>
<path d="M41.125 54.3438H39.6562V55.8125H41.125V54.3438Z" fill="#8F563B"/>
<path d="M42.5938 54.3438H41.125V55.8125H42.5938V54.3438Z" fill="#8F563B"/>
<path d="M44.0625 54.3438H42.5938V55.8125H44.0625V54.3438Z" fill="#8F563B"/>
<path d="M45.5312 54.3438H44.0625V55.8125H45.5312V54.3438Z" fill="#8F563B"/>
<path d="M47 54.3438H45.5312V55.8125H47V54.3438Z" fill="#8F563B"/>
<path d="M48.4688 54.3438H47V55.8125H48.4688V54.3438Z" fill="#8F563B"/>
<path d="M49.9375 54.3438H48.4688V55.8125H49.9375V54.3438Z" fill="#8F563B"/>
<path d="M51.4062 54.3438H49.9375V55.8125H51.4062V54.3438Z" fill="#8F563B"/>
<path d="M52.875 54.3438H51.4062V55.8125H52.875V54.3438Z" fill="#8F563B"/>
<path d="M54.3438 54.3438H52.875V55.8125H54.3438V54.3438Z" fill="#8F563B"/>
<path d="M55.8125 54.3438H54.3438V55.8125H55.8125V54.3438Z" fill="#8F563B"/>
<path d="M57.2812 54.3438H55.8125V55.8125H57.2812V54.3438Z" fill="#8F563B"/>
<path d="M58.75 54.3438H57.2812V55.8125H58.75V54.3438Z" fill="#8F563B"/>
<path d="M60.2188 54.3438H58.75V55.8125H60.2188V54.3438Z" fill="#44211B"/>
<path d="M61.6875 54.3438H60.2188V55.8125H61.6875V54.3438Z" fill="#8F563B"/>
<path d="M63.1562 54.3438H61.6875V55.8125H63.1562V54.3438Z" fill="#8F563B"/>
<path d="M64.625 54.3438H63.1562V55.8125H64.625V54.3438Z" fill="#8F563B"/>
<path d="M66.0938 54.3438H64.625V55.8125H66.0938V54.3438Z" fill="#44211B"/>
<path d="M17.625 55.8125H16.1562V57.2812H17.625V55.8125Z" fill="#44211B"/>
<path d="M19.0938 55.8125H17.625V57.2812H19.0938V55.8125Z" fill="#8F563B"/>
<path d="M20.5625 55.8125H19.0938V57.2812H20.5625V55.8125Z" fill="#8F563B"/>
<path d="M22.0312 55.8125H20.5625V57.2812H22.0312V55.8125Z" fill="#8F563B"/>
<path d="M23.5 55.8125H22.0312V57.2812H23.5V55.8125Z" fill="#8F563B"/>
<path d="M24.9688 55.8125H23.5V57.2812H24.9688V55.8125Z" fill="#8F563B"/>
<path d="M26.4375 55.8125H24.9688V57.2812H26.4375V55.8125Z" fill="#8F563B"/>
<path d="M27.9062 55.8125H26.4375V57.2812H27.9062V55.8125Z" fill="#8F563B"/>
<path d="M29.375 55.8125H27.9062V57.2812H29.375V55.8125Z" fill="#8F563B"/>
<path d="M30.8438 55.8125H29.375V57.2812H30.8438V55.8125Z" fill="#8F563B"/>
<path d="M32.3125 55.8125H30.8438V57.2812H32.3125V55.8125Z" fill="#8F563B"/>
<path d="M33.7812 55.8125H32.3125V57.2812H33.7812V55.8125Z" fill="#8F563B"/>
<path d="M35.25 55.8125H33.7812V57.2812H35.25V55.8125Z" fill="#8F563B"/>
<path d="M36.7188 55.8125H35.25V57.2812H36.7188V55.8125Z" fill="#8F563B"/>
<path d="M38.1875 55.8125H36.7188V57.2812H38.1875V55.8125Z" fill="#8F563B"/>
<path d="M39.6562 55.8125H38.1875V57.2812H39.6562V55.8125Z" fill="#8F563B"/>
<path d="M41.125 55.8125H39.6562V57.2812H41.125V55.8125Z" fill="#8F563B"/>
<path d="M42.5938 55.8125H41.125V57.2812H42.5938V55.8125Z" fill="#8F563B"/>
<path d="M44.0625 55.8125H42.5938V57.2812H44.0625V55.8125Z" fill="#8F563B"/>
<path d="M45.5312 55.8125H44.0625V57.2812H45.5312V55.8125Z" fill="#8F563B"/>
<path d="M47 55.8125H45.5312V57.2812H47V55.8125Z" fill="#8F563B"/>
<path d="M48.4688 55.8125H47V57.2812H48.4688V55.8125Z" fill="#8F563B"/>
<path d="M49.9375 55.8125H48.4688V57.2812H49.9375V55.8125Z" fill="#8F563B"/>
<path d="M51.4062 55.8125H49.9375V57.2812H51.4062V55.8125Z" fill="#8F563B"/>
<path d="M52.875 55.8125H51.4062V57.2812H52.875V55.8125Z" fill="#8F563B"/>
<path d="M54.3438 55.8125H52.875V57.2812H54.3438V55.8125Z" fill="#8F563B"/>
<path d="M55.8125 55.8125H54.3438V57.2812H55.8125V55.8125Z" fill="#8F563B"/>
<path d="M57.2812 55.8125H55.8125V57.2812H57.2812V55.8125Z" fill="#8F563B"/>
<path d="M58.75 55.8125H57.2812V57.2812H58.75V55.8125Z" fill="#44211B"/>
<path d="M60.2188 55.8125H58.75V57.2812H60.2188V55.8125Z" fill="#8F563B"/>
<path d="M61.6875 55.8125H60.2188V57.2812H61.6875V55.8125Z" fill="#8F563B"/>
<path d="M63.1562 55.8125H61.6875V57.2812H63.1562V55.8125Z" fill="#8F563B"/>
<path d="M64.625 55.8125H63.1562V57.2812H64.625V55.8125Z" fill="#8F563B"/>
<path d="M66.0938 55.8125H64.625V57.2812H66.0938V55.8125Z" fill="#44211B"/>
<path d="M17.625 57.2812H16.1562V58.75H17.625V57.2812Z" fill="#44211B"/>
<path d="M19.0938 57.2812H17.625V58.75H19.0938V57.2812Z" fill="#8F563B"/>
<path d="M20.5625 57.2812H19.0938V58.75H20.5625V57.2812Z" fill="#8F563B"/>
<path d="M22.0312 57.2812H20.5625V58.75H22.0312V57.2812Z" fill="#8F563B"/>
<path d="M23.5 57.2812H22.0312V58.75H23.5V57.2812Z" fill="#8F563B"/>
<path d="M24.9688 57.2812H23.5V58.75H24.9688V57.2812Z" fill="#8F563B"/>
<path d="M26.4375 57.2812H24.9688V58.75H26.4375V57.2812Z" fill="#8F563B"/>
<path d="M27.9062 57.2812H26.4375V58.75H27.9062V57.2812Z" fill="#8F563B"/>
<path d="M29.375 57.2812H27.9062V58.75H29.375V57.2812Z" fill="#8F563B"/>
<path d="M30.8438 57.2812H29.375V58.75H30.8438V57.2812Z" fill="#8F563B"/>
<path d="M32.3125 57.2812H30.8438V58.75H32.3125V57.2812Z" fill="#8F563B"/>
<path d="M33.7812 57.2812H32.3125V58.75H33.7812V57.2812Z" fill="#8F563B"/>
<path d="M35.25 57.2812H33.7812V58.75H35.25V57.2812Z" fill="#8F563B"/>
<path d="M36.7188 57.2812H35.25V58.75H36.7188V57.2812Z" fill="#8F563B"/>
<path d="M38.1875 57.2812H36.7188V58.75H38.1875V57.2812Z" fill="#8F563B"/>
<path d="M39.6562 57.2812H38.1875V58.75H39.6562V57.2812Z" fill="#8F563B"/>
<path d="M41.125 57.2812H39.6562V58.75H41.125V57.2812Z" fill="#8F563B"/>
<path d="M42.5938 57.2812H41.125V58.75H42.5938V57.2812Z" fill="#8F563B"/>
<path d="M44.0625 57.2812H42.5938V58.75H44.0625V57.2812Z" fill="#8F563B"/>
<path d="M45.5312 57.2812H44.0625V58.75H45.5312V57.2812Z" fill="#8F563B"/>
<path d="M47 57.2812H45.5312V58.75H47V57.2812Z" fill="#8F563B"/>
<path d="M48.4688 57.2812H47V58.75H48.4688V57.2812Z" fill="#8F563B"/>
<path d="M49.9375 57.2812H48.4688V58.75H49.9375V57.2812Z" fill="#8F563B"/>
<path d="M51.4062 57.2812H49.9375V58.75H51.4062V57.2812Z" fill="#8F563B"/>
<path d="M52.875 57.2812H51.4062V58.75H52.875V57.2812Z" fill="#8F563B"/>
<path d="M54.3438 57.2812H52.875V58.75H54.3438V57.2812Z" fill="#8F563B"/>
<path d="M55.8125 57.2812H54.3438V58.75H55.8125V57.2812Z" fill="#8F563B"/>
<path d="M57.2812 57.2812H55.8125V58.75H57.2812V57.2812Z" fill="#8F563B"/>
<path d="M58.75 57.2812H57.2812V58.75H58.75V57.2812Z" fill="#44211B"/>
<path d="M60.2188 57.2812H58.75V58.75H60.2188V57.2812Z" fill="#8F563B"/>
<path d="M61.6875 57.2812H60.2188V58.75H61.6875V57.2812Z" fill="#8F563B"/>
<path d="M63.1562 57.2812H61.6875V58.75H63.1562V57.2812Z" fill="#8F563B"/>
<path d="M64.625 57.2812H63.1562V58.75H64.625V57.2812Z" fill="#44211B"/>
<path d="M17.625 58.75H16.1562V60.2188H17.625V58.75Z" fill="#44211B"/>
<path d="M19.0938 58.75H17.625V60.2188H19.0938V58.75Z" fill="#8F563B"/>
<path d="M20.5625 58.75H19.0938V60.2188H20.5625V58.75Z" fill="#8F563B"/>
<path d="M22.0312 58.75H20.5625V60.2188H22.0312V58.75Z" fill="#8F563B"/>
<path d="M23.5 58.75H22.0312V60.2188H23.5V58.75Z" fill="#44211B"/>
<path d="M24.9688 58.75H23.5V60.2188H24.9688V58.75Z" fill="#44211B"/>
<path d="M26.4375 58.75H24.9688V60.2188H26.4375V58.75Z" fill="#44211B"/>
<path d="M27.9062 58.75H26.4375V60.2188H27.9062V58.75Z" fill="#44211B"/>
<path d="M29.375 58.75H27.9062V60.2188H29.375V58.75Z" fill="#44211B"/>
<path d="M30.8438 58.75H29.375V60.2188H30.8438V58.75Z" fill="#44211B"/>
<path d="M32.3125 58.75H30.8438V60.2188H32.3125V58.75Z" fill="#44211B"/>
<path d="M33.7812 58.75H32.3125V60.2188H33.7812V58.75Z" fill="#44211B"/>
<path d="M35.25 58.75H33.7812V60.2188H35.25V58.75Z" fill="#44211B"/>
<path d="M36.7188 58.75H35.25V60.2188H36.7188V58.75Z" fill="#44211B"/>
<path d="M38.1875 58.75H36.7188V60.2188H38.1875V58.75Z" fill="#44211B"/>
<path d="M39.6562 58.75H38.1875V60.2188H39.6562V58.75Z" fill="#44211B"/>
<path d="M41.125 58.75H39.6562V60.2188H41.125V58.75Z" fill="#44211B"/>
<path d="M42.5938 58.75H41.125V60.2188H42.5938V58.75Z" fill="#44211B"/>
<path d="M44.0625 58.75H42.5938V60.2188H44.0625V58.75Z" fill="#44211B"/>
<path d="M45.5312 58.75H44.0625V60.2188H45.5312V58.75Z" fill="#44211B"/>
<path d="M47 58.75H45.5312V60.2188H47V58.75Z" fill="#44211B"/>
<path d="M48.4688 58.75H47V60.2188H48.4688V58.75Z" fill="#44211B"/>
<path d="M49.9375 58.75H48.4688V60.2188H49.9375V58.75Z" fill="#8F563B"/>
<path d="M51.4062 58.75H49.9375V60.2188H51.4062V58.75Z" fill="#8F563B"/>
<path d="M52.875 58.75H51.4062V60.2188H52.875V58.75Z" fill="#8F563B"/>
<path d="M54.3438 58.75H52.875V60.2188H54.3438V58.75Z" fill="#8F563B"/>
<path d="M55.8125 58.75H54.3438V60.2188H55.8125V58.75Z" fill="#44211B"/>
<path d="M57.2812 58.75H55.8125V60.2188H57.2812V58.75Z" fill="#44211B"/>
<path d="M58.75 58.75H57.2812V60.2188H58.75V58.75Z" fill="#44211B"/>
<path d="M60.2188 58.75H58.75V60.2188H60.2188V58.75Z" fill="#8F563B"/>
<path d="M61.6875 58.75H60.2188V60.2188H61.6875V58.75Z" fill="#8F563B"/>
<path d="M63.1562 58.75H61.6875V60.2188H63.1562V58.75Z" fill="#44211B"/>
<path d="M17.625 60.2188H16.1562V61.6875H17.625V60.2188Z" fill="#44211B"/>
<path d="M19.0938 60.2188H17.625V61.6875H19.0938V60.2188Z" fill="#C47238"/>
<path d="M20.5625 60.2188H19.0938V61.6875H20.5625V60.2188Z" fill="#C47238"/>
<path d="M22.0312 60.2188H20.5625V61.6875H22.0312V60.2188Z" fill="#44211B"/>
<path d="M27.9062 60.2188H26.4375V61.6875H27.9062V60.2188Z" fill="#44211B"/>
<path d="M29.375 60.2188H27.9062V61.6875H29.375V60.2188Z" fill="#C47238"/>
<path d="M30.8438 60.2188H29.375V61.6875H30.8438V60.2188Z" fill="#C47238"/>
<path d="M32.3125 60.2188H30.8438V61.6875H32.3125V60.2188Z" fill="#44211B"/>
<path d="M49.9375 60.2188H48.4688V61.6875H49.9375V60.2188Z" fill="#44211B"/>
<path d="M51.4062 60.2188H49.9375V61.6875H51.4062V60.2188Z" fill="#C47238"/>
<path d="M52.875 60.2188H51.4062V61.6875H52.875V60.2188Z" fill="#C47238"/>
<path d="M54.3438 60.2188H52.875V61.6875H54.3438V60.2188Z" fill="#44211B"/>
<path d="M58.75 60.2188H57.2812V61.6875H58.75V60.2188Z" fill="#44211B"/>
<path d="M60.2188 60.2188H58.75V61.6875H60.2188V60.2188Z" fill="#C47238"/>
<path d="M61.6875 60.2188H60.2188V61.6875H61.6875V60.2188Z" fill="#C47238"/>
<path d="M63.1562 60.2188H61.6875V61.6875H63.1562V60.2188Z" fill="#44211B"/>
<path d="M17.625 61.6875H16.1562V63.1562H17.625V61.6875Z" fill="#44211B"/>
<path d="M19.0938 61.6875H17.625V63.1562H19.0938V61.6875Z" fill="#C47238"/>
<path d="M20.5625 61.6875H19.0938V63.1562H20.5625V61.6875Z" fill="#C47238"/>
<path d="M22.0312 61.6875H20.5625V63.1562H22.0312V61.6875Z" fill="#44211B"/>
<path d="M27.9062 61.6875H26.4375V63.1562H27.9062V61.6875Z" fill="#44211B"/>
<path d="M29.375 61.6875H27.9062V63.1562H29.375V61.6875Z" fill="#C47238"/>
<path d="M30.8438 61.6875H29.375V63.1562H30.8438V61.6875Z" fill="#C47238"/>
<path d="M32.3125 61.6875H30.8438V63.1562H32.3125V61.6875Z" fill="#44211B"/>
<path d="M49.9375 61.6875H48.4688V63.1562H49.9375V61.6875Z" fill="#44211B"/>
<path d="M51.4062 61.6875H49.9375V63.1562H51.4062V61.6875Z" fill="#C47238"/>
<path d="M52.875 61.6875H51.4062V63.1562H52.875V61.6875Z" fill="#C47238"/>
<path d="M54.3438 61.6875H52.875V63.1562H54.3438V61.6875Z" fill="#44211B"/>
<path d="M58.75 61.6875H57.2812V63.1562H58.75V61.6875Z" fill="#44211B"/>
<path d="M60.2188 61.6875H58.75V63.1562H60.2188V61.6875Z" fill="#C47238"/>
<path d="M61.6875 61.6875H60.2188V63.1562H61.6875V61.6875Z" fill="#C47238"/>
<path d="M63.1562 61.6875H61.6875V63.1562H63.1562V61.6875Z" fill="#44211B"/>
<path d="M17.625 63.1562H16.1562V64.625H17.625V63.1562Z" fill="#44211B"/>
<path d="M19.0938 63.1562H17.625V64.625H19.0938V63.1562Z" fill="#C47238"/>
<path d="M20.5625 63.1562H19.0938V64.625H20.5625V63.1562Z" fill="#C47238"/>
<path d="M22.0312 63.1562H20.5625V64.625H22.0312V63.1562Z" fill="#C47238"/>
<path d="M23.5 63.1562H22.0312V64.625H23.5V63.1562Z" fill="#44211B"/>
<path d="M27.9062 63.1562H26.4375V64.625H27.9062V63.1562Z" fill="#44211B"/>
<path d="M29.375 63.1562H27.9062V64.625H29.375V63.1562Z" fill="#C47238"/>
<path d="M30.8438 63.1562H29.375V64.625H30.8438V63.1562Z" fill="#C47238"/>
<path d="M32.3125 63.1562H30.8438V64.625H32.3125V63.1562Z" fill="#C47238"/>
<path d="M33.7812 63.1562H32.3125V64.625H33.7812V63.1562Z" fill="#44211B"/>
<path d="M49.9375 63.1562H48.4688V64.625H49.9375V63.1562Z" fill="#44211B"/>
<path d="M51.4062 63.1562H49.9375V64.625H51.4062V63.1562Z" fill="#C47238"/>
<path d="M52.875 63.1562H51.4062V64.625H52.875V63.1562Z" fill="#C47238"/>
<path d="M54.3438 63.1562H52.875V64.625H54.3438V63.1562Z" fill="#C47238"/>
<path d="M55.8125 63.1562H54.3438V64.625H55.8125V63.1562Z" fill="#44211B"/>
<path d="M58.75 63.1562H57.2812V64.625H58.75V63.1562Z" fill="#44211B"/>
<path d="M60.2188 63.1562H58.75V64.625H60.2188V63.1562Z" fill="#C47238"/>
<path d="M61.6875 63.1562H60.2188V64.625H61.6875V63.1562Z" fill="#C47238"/>
<path d="M63.1562 63.1562H61.6875V64.625H63.1562V63.1562Z" fill="#C47238"/>
<path d="M64.625 63.1562H63.1562V64.625H64.625V63.1562Z" fill="#44211B"/>
<path d="M19.0938 64.625H17.625V66.0938H19.0938V64.625Z" fill="#44211B"/>
<path d="M20.5625 64.625H19.0938V66.0938H20.5625V64.625Z" fill="#44211B"/>
<path d="M22.0312 64.625H20.5625V66.0938H22.0312V64.625Z" fill="#44211B"/>
<path d="M29.375 64.625H27.9062V66.0938H29.375V64.625Z" fill="#44211B"/>
<path d="M30.8438 64.625H29.375V66.0938H30.8438V64.625Z" fill="#44211B"/>
<path d="M32.3125 64.625H30.8438V66.0938H32.3125V64.625Z" fill="#44211B"/>
<path d="M51.4062 64.625H49.9375V66.0938H51.4062V64.625Z" fill="#44211B"/>
<path d="M52.875 64.625H51.4062V66.0938H52.875V64.625Z" fill="#44211B"/>
<path d="M54.3438 64.625H52.875V66.0938H54.3438V64.625Z" fill="#44211B"/>
<path d="M60.2188 64.625H58.75V66.0938H60.2188V64.625Z" fill="#44211B"/>
<path d="M61.6875 64.625H60.2188V66.0938H61.6875V64.625Z" fill="#44211B"/>
<path d="M63.1562 64.625H61.6875V66.0938H63.1562V64.625Z" fill="#44211B"/>
</svg>
